<svg version="1.1" viewBox="0.0 0.0 600.0 371.0" fill="none" stroke="none" stroke-linecap="square" stroke-miterlimit="10" width="600" height="371" xmlns:xlink="http://www.w3.org/1999/xlink" xmlns="http://www.w3.org/2000/svg"><path fill="#111111" d="M0 0L600.0 0L600.0 371.0L0 371.0L0 0Z" fill-rule="nonzero"/><path stroke="#dddddd" stroke-width="1.0" stroke-linecap="butt" d="M45.5 332.5L581.5 332.5" fill-rule="nonzero"/><path stroke="#444444" stroke-width="1.0" stroke-linecap="butt" d="M45.5 278.5L581.5 278.5" fill-rule="nonzero"/><path stroke="#444444" stroke-width="1.0" stroke-linecap="butt" d="M45.5 224.5L581.5 224.5" fill-rule="nonzero"/><path stroke="#444444" stroke-width="1.0" stroke-linecap="butt" d="M45.5 170.5L581.5 170.5" fill-rule="nonzero"/><path stroke="#444444" stroke-width="1.0" stroke-linecap="butt" d="M45.5 116.5L581.5 116.5" fill-rule="nonzero"/><path stroke="#444444" stroke-width="1.0" stroke-linecap="butt" d="M45.5 61.5L581.5 61.5" fill-rule="nonzero"/><clipPath id="id_0"><path d="M45.55 61.916668L581.45 61.916668L581.45 332.45L45.55 332.45L45.55 61.916668Z" clip-rule="nonzero"/></clipPath><path stroke="#3c78d8" stroke-width="2.0" stroke-linecap="butt" clip-path="url(#id_0)" d="M206.0 332.0L102.0 332.0L102.0 91.0C102.0 89.89543 102.89543 89.0 104.0 89.0L204.0 89.0C205.10457 89.0 206.0 89.89543 206.0 91.0Z" fill-rule="nonzero"/><path fill="#4285f4" clip-path="url(#id_0)" d="M206.0 332.0L102.0 332.0L102.0 91.0C102.0 89.89543 102.89543 89.0 104.0 89.0L204.0 89.0C205.10457 89.0 206.0 89.89543 206.0 91.0Z" fill-rule="nonzero"/><path stroke="#3c78d8" stroke-width="2.0" stroke-linecap="butt" clip-path="url(#id_0)" d="M366.0 332.0L262.0 332.0L262.0 213.0C262.0 211.89543 262.89542 211.0 264.0 211.0L364.0 211.0C365.10458 211.0 366.0 211.89543 366.0 213.0Z" fill-rule="nonzero"/><path fill="#4285f4" clip-path="url(#id_0)" d="M366.0 332.0L262.0 332.0L262.0 213.0C262.0 211.89543 262.89542 211.0 264.0 211.0L364.0 211.0C365.10458 211.0 366.0 211.89543 366.0 213.0Z" fill-rule="nonzero"/><path stroke="#3c78d8" stroke-width="2.0" stroke-linecap="butt" clip-path="url(#id_0)" d="M525.0 332.0L421.0 332.0L421.0 240.0C421.0 238.89543 421.89542 238.0 423.0 238.0L523.0 238.0C524.10455 238.0 525.0 238.89543 525.0 240.0Z" fill-rule="nonzero"/><path fill="#4285f4" clip-path="url(#id_0)" d="M525.0 332.0L421.0 332.0L421.0 240.0C421.0 238.89543 421.89542 238.0 423.0 238.0L523.0 238.0C524.10455 238.0 525.0 238.89543 525.0 240.0Z" fill-rule="nonzero"/><path stroke="#4285f4" stroke-width="3.0" stroke-linejoin="round" stroke-linecap="round" d="M155.35938 102.02Q155.03125 102.42625 154.54688 102.67625Q154.07812 102.91062 153.51562 102.91062Q152.78125 102.91062 152.23438 102.55125Q151.6875 102.19187 151.39062 101.53562Q151.09375 100.86375 151.09375 100.06687Q151.09375 99.22312 151.40625 98.53562Q151.73438 97.84812 152.32812 97.48875Q152.9375 97.11375 153.73438 97.11375Q155.0 97.11375 155.71875 98.06687Q156.45312 99.02 156.45312 100.645L156.45312 100.9575Q156.45312 103.4575 155.46875 104.59812Q154.48438 105.73875 152.5 105.77L152.28125 105.77L152.28125 104.86375L152.51562 104.86375Q153.85938 104.8325 154.57812 104.16062Q155.29688 103.48875 155.35938 102.02ZM153.6875 102.02Q154.23438 102.02 154.6875 101.69187Q155.15625 101.34812 155.375 100.86375L155.375 100.42625Q155.375 99.36375 154.90625 98.69187Q154.4375 98.02 153.73438 98.02Q153.01562 98.02 152.57812 98.56687Q152.15625 99.11375 152.15625 100.02Q152.15625 100.895 152.5625 101.4575Q152.98438 102.02 153.6875 102.02Z" fill-rule="nonzero"/><path fill="#ffffff" d="M155.35938 102.02Q155.03125 102.42625 154.54688 102.67625Q154.07812 102.91062 153.51562 102.91062Q152.78125 102.91062 152.23438 102.55125Q151.6875 102.19187 151.39062 101.53562Q151.09375 100.86375 151.09375 100.06687Q151.09375 99.22312 151.40625 98.53562Q151.73438 97.84812 152.32812 97.48875Q152.9375 97.11375 153.73438 97.11375Q155.0 97.11375 155.71875 98.06687Q156.45312 99.02 156.45312 100.645L156.45312 100.9575Q156.45312 103.4575 155.46875 104.59812Q154.48438 105.73875 152.5 105.77L152.28125 105.77L152.28125 104.86375L152.51562 104.86375Q153.85938 104.8325 154.57812 104.16062Q155.29688 103.48875 155.35938 102.02ZM153.6875 102.02Q154.23438 102.02 154.6875 101.69187Q155.15625 101.34812 155.375 100.86375L155.375 100.42625Q155.375 99.36375 154.90625 98.69187Q154.4375 98.02 153.73438 98.02Q153.01562 98.02 152.57812 98.56687Q152.15625 99.11375 152.15625 100.02Q152.15625 100.895 152.5625 101.4575Q152.98438 102.02 153.6875 102.02Z" fill-rule="nonzero"/><path stroke="#4285f4" stroke-width="3.0" stroke-linejoin="round" stroke-linecap="round" d="M310.78125 224.65062L311.96875 224.65062L311.96875 225.52562L310.78125 225.52562L310.78125 227.51L309.70312 227.51L309.70312 225.52562L305.8125 225.52562L305.8125 224.885L309.625 218.97874L310.78125 218.97874L310.78125 224.65062ZM307.04688 224.65062L309.70312 224.65062L309.70312 220.46312L309.5625 220.6975L307.04688 224.65062ZM313.34375 226.9475Q313.34375 226.66624 313.5 226.47874Q313.67188 226.29124 314.0 226.29124Q314.34375 226.29124 314.51562 226.47874Q314.6875 226.66624 314.6875 226.9475Q314.6875 227.21312 314.51562 227.40062Q314.34375 227.5725 314.0 227.5725Q313.67188 227.5725 313.5 227.40062Q313.34375 227.21312 313.34375 226.9475ZM316.70312 223.22874L317.14062 218.97874L321.51562 218.97874L321.51562 219.97874L318.0625 219.97874L317.79688 222.30687Q318.4375 221.93187 319.23438 221.93187Q320.39062 221.93187 321.07812 222.71312Q321.76562 223.47874 321.76562 224.79124Q321.76562 226.10374 321.04688 226.86937Q320.34375 227.635 319.0625 227.635Q317.9375 227.635 317.21875 227.01Q316.5 226.36937 316.40625 225.26L317.42188 225.26Q317.53125 225.99437 317.95312 226.36937Q318.375 226.74437 319.0625 226.74437Q319.8125 226.74437 320.25 226.22874Q320.6875 225.71312 320.6875 224.80687Q320.6875 223.9475 320.21875 223.43187Q319.75 222.91624 318.96875 222.91624Q318.26562 222.91624 317.85938 223.21312L317.57812 223.4475L316.70312 223.22874Z" fill-rule="nonzero"/><path fill="#ffffff" d="M310.78125 224.65062L311.96875 224.65062L311.96875 225.52562L310.78125 225.52562L310.78125 227.51L309.70312 227.51L309.70312 225.52562L305.8125 225.52562L305.8125 224.885L309.625 218.97874L310.78125 218.97874L310.78125 224.65062ZM307.04688 224.65062L309.70312 224.65062L309.70312 220.46312L309.5625 220.6975L307.04688 224.65062ZM313.34375 226.9475Q313.34375 226.66624 313.5 226.47874Q313.67188 226.29124 314.0 226.29124Q314.34375 226.29124 314.51562 226.47874Q314.6875 226.66624 314.6875 226.9475Q314.6875 227.21312 314.51562 227.40062Q314.34375 227.5725 314.0 227.5725Q313.67188 227.5725 313.5 227.40062Q313.34375 227.21312 313.34375 226.9475ZM316.70312 223.22874L317.14062 218.97874L321.51562 218.97874L321.51562 219.97874L318.0625 219.97874L317.79688 222.30687Q318.4375 221.93187 319.23438 221.93187Q320.39062 221.93187 321.07812 222.71312Q321.76562 223.47874 321.76562 224.79124Q321.76562 226.10374 321.04688 226.86937Q320.34375 227.635 319.0625 227.635Q317.9375 227.635 317.21875 227.01Q316.5 226.36937 316.40625 225.26L317.42188 225.26Q317.53125 225.99437 317.95312 226.36937Q318.375 226.74437 319.0625 226.74437Q319.8125 226.74437 320.25 226.22874Q320.6875 225.71312 320.6875 224.80687Q320.6875 223.9475 320.21875 223.43187Q319.75 222.91624 318.96875 222.91624Q318.26562 222.91624 317.85938 223.21312L317.57812 223.4475L316.70312 223.22874Z" fill-rule="nonzero"/><path stroke="#4285f4" stroke-width="3.0" stroke-linejoin="round" stroke-linecap="round" d="M466.78125 249.76646L467.59375 249.76646Q468.375 249.75084 468.8125 249.36021Q469.25 248.96959 469.25 248.29771Q469.25 246.79771 467.75 246.79771Q467.04688 246.79771 466.625 247.20396Q466.21875 247.61021 466.21875 248.26646L465.125 248.26646Q465.125 247.25084 465.85938 246.57896Q466.60938 245.90709 467.75 245.90709Q468.95312 245.90709 469.64062 246.54771Q470.32812 247.18834 470.32812 248.32896Q470.32812 248.89146 469.96875 249.40709Q469.60938 249.92271 468.98438 250.18834Q469.6875 250.40709 470.0625 250.92271Q470.45312 251.43834 470.45312 252.18834Q470.45312 253.32896 469.70312 254.01646Q468.95312 254.68834 467.75 254.68834Q466.5625 254.68834 465.79688 254.03209Q465.04688 253.37584 465.04688 252.31334L466.14062 252.31334Q466.14062 252.98521 466.57812 253.39146Q467.01562 253.79771 467.76562 253.79771Q468.54688 253.79771 468.95312 253.39146Q469.375 252.96959 469.375 252.20396Q469.375 251.46959 468.92188 251.07896Q468.46875 250.67271 467.59375 250.65709L466.78125 250.65709L466.78125 249.76646ZM472.34375 254.00084Q472.34375 253.71959 472.5 253.53209Q472.67188 253.34459 473.0 253.34459Q473.34375 253.34459 473.51562 253.53209Q473.6875 253.71959 473.6875 254.00084Q473.6875 254.26646 473.51562 254.45396Q473.34375 254.62584 473.0 254.62584Q472.67188 254.62584 472.5 254.45396Q472.34375 254.26646 472.34375 254.00084ZM475.70312 250.28209L476.14062 246.03209L480.51562 246.03209L480.51562 247.03209L477.0625 247.03209L476.79688 249.36021Q477.4375 248.98521 478.23438 248.98521Q479.39062 248.98521 480.07812 249.76646Q480.76562 250.53209 480.76562 251.84459Q480.76562 253.15709 480.04688 253.92271Q479.34375 254.68834 478.0625 254.68834Q476.9375 254.68834 476.21875 254.06334Q475.5 253.42271 475.40625 252.31334L476.42188 252.31334Q476.53125 253.04771 476.95312 253.42271Q477.375 253.79771 478.0625 253.79771Q478.8125 253.79771 479.25 253.28209Q479.6875 252.76646 479.6875 251.86021Q479.6875 251.00084 479.21875 250.48521Q478.75 249.96959 477.96875 249.96959Q477.26562 249.96959 476.85938 250.26646L476.57812 250.50084L475.70312 250.28209Z" fill-rule="nonzero"/><path fill="#ffffff" d="M466.78125 249.76646L467.59375 249.76646Q468.375 249.75084 468.8125 249.36021Q469.25 248.96959 469.25 248.29771Q469.25 246.79771 467.75 246.79771Q467.04688 246.79771 466.625 247.20396Q466.21875 247.61021 466.21875 248.26646L465.125 248.26646Q465.125 247.25084 465.85938 246.57896Q466.60938 245.90709 467.75 245.90709Q468.95312 245.90709 469.64062 246.54771Q470.32812 247.18834 470.32812 248.32896Q470.32812 248.89146 469.96875 249.40709Q469.60938 249.92271 468.98438 250.18834Q469.6875 250.40709 470.0625 250.92271Q470.45312 251.43834 470.45312 252.18834Q470.45312 253.32896 469.70312 254.01646Q468.95312 254.68834 467.75 254.68834Q466.5625 254.68834 465.79688 254.03209Q465.04688 253.37584 465.04688 252.31334L466.14062 252.31334Q466.14062 252.98521 466.57812 253.39146Q467.01562 253.79771 467.76562 253.79771Q468.54688 253.79771 468.95312 253.39146Q469.375 252.96959 469.375 252.20396Q469.375 251.46959 468.92188 251.07896Q468.46875 250.67271 467.59375 250.65709L466.78125 250.65709L466.78125 249.76646ZM472.34375 254.00084Q472.34375 253.71959 472.5 253.53209Q472.67188 253.34459 473.0 253.34459Q473.34375 253.34459 473.51562 253.53209Q473.6875 253.71959 473.6875 254.00084Q473.6875 254.26646 473.51562 254.45396Q473.34375 254.62584 473.0 254.62584Q472.67188 254.62584 472.5 254.45396Q472.34375 254.26646 472.34375 254.00084ZM475.70312 250.28209L476.14062 246.03209L480.51562 246.03209L480.51562 247.03209L477.0625 247.03209L476.79688 249.36021Q477.4375 248.98521 478.23438 248.98521Q479.39062 248.98521 480.07812 249.76646Q480.76562 250.53209 480.76562 251.84459Q480.76562 253.15709 480.04688 253.92271Q479.34375 254.68834 478.0625 254.68834Q476.9375 254.68834 476.21875 254.06334Q475.5 253.42271 475.40625 252.31334L476.42188 252.31334Q476.53125 253.04771 476.95312 253.42271Q477.375 253.79771 478.0625 253.79771Q478.8125 253.79771 479.25 253.28209Q479.6875 252.76646 479.6875 251.86021Q479.6875 251.00084 479.21875 250.48521Q478.75 249.96959 477.96875 249.96959Q477.26562 249.96959 476.85938 250.26646L476.57812 250.50084L475.70312 250.28209Z" fill-rule="nonzero"/><path fill="#ffffff" d="M33.05 332.21564Q33.05 330.6844 33.3625 329.7625Q33.675 328.825 34.284374 328.325Q34.909374 327.825 35.846874 327.825Q36.534374 327.825 37.05 328.10626Q37.58125 328.3875 37.925 328.91876Q38.26875 329.4344 38.45625 330.1844Q38.64375 330.9344 38.64375 332.21564Q38.64375 333.73126 38.33125 334.65314Q38.034374 335.575 37.409374 336.09064Q36.8 336.59064 35.846874 336.59064Q34.6125 336.59064 33.89375 335.7Q33.05 334.6375 33.05 332.21564ZM34.128124 332.21564Q34.128124 334.325 34.628124 335.02814Q35.128124 335.73126 35.846874 335.73126Q36.58125 335.73126 37.065624 335.02814Q37.565624 334.325 37.565624 332.21564Q37.565624 330.09064 37.065624 329.40314Q36.58125 328.7 35.83125 328.7Q35.1125 328.7 34.675 329.3094Q34.128124 330.09064 34.128124 332.21564Z" fill-rule="nonzero"/><path fill="#ffffff" d="M38.596874 281.3277L38.596874 282.34332L32.909374 282.34332Q32.909374 281.96832 33.034374 281.60895Q33.253124 281.03082 33.721874 280.46832Q34.20625 279.90582 35.1125 279.17145Q36.51875 278.0152 37.003124 277.34332Q37.503124 276.67145 37.503124 276.0777Q37.503124 275.4527 37.05 275.03082Q36.596874 274.59332 35.878124 274.59332Q35.1125 274.59332 34.659374 275.04645Q34.20625 275.49957 34.190624 276.31207L33.1125 276.2027Q33.221874 274.98395 33.940624 274.35895Q34.675 273.71832 35.909374 273.71832Q37.14375 273.71832 37.8625 274.40582Q38.58125 275.09332 38.58125 276.10895Q38.58125 276.62457 38.3625 277.12457Q38.159374 277.60895 37.659374 278.17145Q37.175 278.71832 36.05 279.67145Q35.096874 280.46832 34.815624 280.7652Q34.55 281.04645 34.378124 281.3277L38.596874 281.3277Z" fill-rule="nonzero"/><path fill="#ffffff" d="M36.425 228.23666L36.425 226.17416L32.70625 226.17416L32.70625 225.20541L36.628124 219.64291L37.4875 219.64291L37.4875 225.20541L38.64375 225.20541L38.64375 226.17416L37.4875 226.17416L37.4875 228.23666L36.425 228.23666ZM36.425 225.20541L36.425 221.34604L33.7375 225.20541L36.425 225.20541Z" fill-rule="nonzero"/><path fill="#ffffff" d="M38.51875 167.64563L37.471874 167.72375Q37.33125 167.09875 37.08125 166.8175Q36.64375 166.36438 36.01875 166.36438Q35.51875 166.36438 35.128124 166.64563Q34.64375 167.02063 34.346874 167.72375Q34.065624 168.41125 34.05 169.6925Q34.425 169.11438 34.971874 168.83313Q35.534374 168.55188 36.14375 168.55188Q37.190624 168.55188 37.925 169.33313Q38.675 170.11438 38.675 171.33313Q38.675 172.14563 38.315624 172.84875Q37.971874 173.53625 37.3625 173.91125Q36.753124 174.27063 35.9875 174.27063Q34.659374 174.27063 33.83125 173.30188Q33.003124 172.33313 33.003124 170.11438Q33.003124 167.61438 33.925 166.48938Q34.721874 165.505 36.08125 165.505Q37.096874 165.505 37.7375 166.08313Q38.39375 166.64563 38.51875 167.64563ZM34.221874 171.34875Q34.221874 171.89563 34.440624 172.39563Q34.675 172.88 35.08125 173.14563Q35.503124 173.41125 35.971874 173.41125Q36.628124 173.41125 37.1125 172.88Q37.596874 172.33313 37.596874 171.41125Q37.596874 170.52063 37.1125 170.005Q36.64375 169.48938 35.925 169.48938Q35.20625 169.48938 34.70625 170.005Q34.221874 170.52063 34.221874 171.34875Z" fill-rule="nonzero"/><path fill="#ffffff" d="M34.675 115.36708Q34.01875 115.11708 33.690624 114.67958Q33.378124 114.226456 33.378124 113.61708Q33.378124 112.67958 34.05 112.038956Q34.7375 111.39833 35.846874 111.39833Q36.971874 111.39833 37.659374 112.05458Q38.346874 112.71083 38.346874 113.64833Q38.346874 114.24208 38.034374 114.67958Q37.721874 115.11708 37.08125 115.36708Q37.878124 115.61708 38.284374 116.195206Q38.690624 116.77333 38.690624 117.570206Q38.690624 118.663956 37.909374 119.413956Q37.14375 120.163956 35.8625 120.163956Q34.596874 120.163956 33.815624 119.413956Q33.034374 118.663956 33.034374 117.538956Q33.034374 116.695206 33.45625 116.132706Q33.89375 115.570206 34.675 115.36708ZM34.45625 113.570206Q34.45625 114.17958 34.846874 114.570206Q35.253124 114.96083 35.878124 114.96083Q36.4875 114.96083 36.878124 114.58583Q37.26875 114.195206 37.26875 113.632706Q37.26875 113.05458 36.8625 112.663956Q36.45625 112.257706 35.8625 112.257706Q35.253124 112.257706 34.846874 112.64833Q34.45625 113.038956 34.45625 113.570206ZM34.128124 117.538956Q34.128124 117.99208 34.33125 118.413956Q34.55 118.83583 34.971874 119.070206Q35.39375 119.30458 35.878124 119.30458Q36.628124 119.30458 37.1125 118.820206Q37.6125 118.33583 37.6125 117.58583Q37.6125 116.820206 37.1125 116.320206Q36.6125 115.820206 35.846874 115.820206Q35.096874 115.820206 34.6125 116.320206Q34.128124 116.80458 34.128124 117.538956Z" fill-rule="nonzero"/><path fill="#ffffff" d="M30.01875 65.916664L28.971874 65.916664L28.971874 59.197914Q28.58125 59.55729 27.95625 59.93229Q27.346874 60.291664 26.8625 60.46354L26.8625 59.447914Q27.7375 59.02604 28.39375 58.447914Q29.065624 57.854164 29.346874 57.291664L30.01875 57.291664L30.01875 65.916664ZM33.05 61.68229Q33.05 60.15104 33.3625 59.229164Q33.675 58.291664 34.284374 57.791664Q34.909374 57.291664 35.846874 57.291664Q36.534374 57.291664 37.05 57.572914Q37.58125 57.854164 37.925 58.385414Q38.26875 58.90104 38.45625 59.65104Q38.64375 60.40104 38.64375 61.68229Q38.64375 63.197914 38.33125 64.11979Q38.034374 65.041664 37.409374 65.55729Q36.8 66.05729 35.846874 66.05729Q34.6125 66.05729 33.89375 65.166664Q33.05 64.104164 33.05 61.68229ZM34.128124 61.68229Q34.128124 63.791664 34.628124 64.49479Q35.128124 65.197914 35.846874 65.197914Q36.58125 65.197914 37.065624 64.49479Q37.565624 63.791664 37.565624 61.68229Q37.565624 59.55729 37.065624 58.86979Q36.58125 58.166664 35.83125 58.166664Q35.1125 58.166664 34.675 58.77604Q34.128124 59.55729 34.128124 61.68229Z" fill-rule="nonzero"/><path fill="#ffffff" d="M123.07673 346.6844L124.13923 346.59064Q124.217354 347.2469 124.498604 347.65314Q124.779854 348.0594 125.35798 348.325Q125.95173 348.575 126.686104 348.575Q127.32673 348.575 127.82673 348.3875Q128.32672 348.1844 128.5611 347.85626Q128.8111 347.5125 128.8111 347.1219Q128.8111 346.71564 128.57672 346.41876Q128.34235 346.10626 127.811104 345.90314Q127.45173 345.7625 126.26423 345.48126Q125.092354 345.2 124.623604 344.95Q123.998604 344.6219 123.70173 344.15314Q123.404854 343.66876 123.404854 343.075Q123.404854 342.4344 123.76423 341.8719Q124.13923 341.29376 124.842354 341.0125Q125.561104 340.71564 126.42048 340.71564Q127.373604 340.71564 128.10797 341.02814Q128.84235 341.325 129.23297 341.9344Q129.6236 342.52814 129.65485 343.27814L128.5611 343.35626Q128.46735 342.54376 127.95173 342.1375Q127.45173 341.71564 126.467354 341.71564Q125.436104 341.71564 124.967354 342.09064Q124.498604 342.46564 124.498604 342.9969Q124.498604 343.46564 124.82673 343.7625Q125.154854 344.0594 126.529854 344.3719Q127.92048 344.6844 128.4361 344.91876Q129.1861 345.27814 129.54547 345.8094Q129.90485 346.325 129.90485 347.02814Q129.90485 347.71564 129.51422 348.325Q129.1236 348.91876 128.38922 349.2625Q127.654854 349.59064 126.73298 349.59064Q125.561104 349.59064 124.76423 349.2625Q123.98298 348.91876 123.529854 348.23126Q123.092354 347.54376 123.07673 346.6844ZM131.32672 351.84064L131.32672 343.23126L132.27985 343.23126L132.27985 344.02814Q132.6236 343.5594 133.04547 343.325Q133.48297 343.09064 134.09235 343.09064Q134.88922 343.09064 135.4986 343.4969Q136.10797 343.90314 136.40485 344.65314Q136.71735 345.40314 136.71735 346.29376Q136.71735 347.2469 136.3736 348.0125Q136.04547 348.77814 135.38922 349.1844Q134.73297 349.59064 134.01422 349.59064Q133.48297 349.59064 133.0611 349.3719Q132.63922 349.1375 132.3736 348.8094L132.3736 351.84064L131.32672 351.84064ZM132.27985 346.3719Q132.27985 347.575 132.76422 348.15314Q133.2486 348.71564 133.9361 348.71564Q134.63922 348.71564 135.13922 348.1219Q135.63922 347.52814 135.63922 346.27814Q135.63922 345.09064 135.15485 344.5125Q134.67047 343.91876 133.98297 343.91876Q133.3111 343.91876 132.79547 344.54376Q132.27985 345.16876 132.27985 346.3719ZM138.3111 349.45L138.3111 343.23126L139.26422 343.23126L139.26422 344.16876Q139.6236 343.5125 139.92047 343.3094Q140.23297 343.09064 140.60797 343.09064Q141.13922 343.09064 141.6861 343.41876L141.32672 344.40314Q140.9361 344.16876 140.5611 344.16876Q140.20172 344.16876 139.92047 344.3875Q139.65485 344.59064 139.54547 344.96564Q139.35797 345.52814 139.35797 346.1844L139.35797 349.45L138.3111 349.45ZM146.38922 348.6844Q145.79547 349.1844 145.2486 349.3875Q144.71735 349.59064 144.09235 349.59064Q143.0611 349.59064 142.51422 349.09064Q141.96735 348.59064 141.96735 347.8094Q141.96735 347.35626 142.17047 346.98126Q142.3736 346.59064 142.71735 346.3719Q143.0611 346.1375 143.48297 346.02814Q143.77985 345.9344 144.42047 345.85626Q145.6861 345.71564 146.29547 345.4969Q146.29547 345.27814 146.29547 345.23126Q146.29547 344.575 145.9986 344.3094Q145.59235 343.96564 144.79547 343.96564Q144.0611 343.96564 143.70172 344.23126Q143.34235 344.48126 143.17047 345.1375L142.13922 344.9969Q142.27985 344.34064 142.60797 343.9344Q142.9361 343.52814 143.54547 343.3094Q144.15485 343.09064 144.95172 343.09064Q145.7486 343.09064 146.2486 343.27814Q146.7486 343.46564 146.98297 343.7469Q147.21735 344.02814 147.3111 344.46564Q147.35797 344.73126 147.35797 345.4344L147.35797 346.84064Q147.35797 348.3094 147.42047 348.7Q147.4986 349.09064 147.70172 349.45L146.59235 349.45Q146.4361 349.1219 146.38922 348.6844ZM146.29547 346.325Q145.71735 346.5594 144.57672 346.73126Q143.92047 346.825 143.65485 346.95Q143.38922 347.0594 143.23297 347.27814Q143.09235 347.4969 143.09235 347.77814Q143.09235 348.2 143.40485 348.48126Q143.73297 348.7625 144.34235 348.7625Q144.95172 348.7625 145.42047 348.4969Q145.90485 348.23126 146.1236 347.7625Q146.29547 347.40314 146.29547 346.71564L146.29547 346.325ZM153.38922 347.16876L154.42047 347.3094Q154.2486 348.3719 153.54547 348.98126Q152.84235 349.59064 151.82672 349.59064Q150.54547 349.59064 149.76422 348.7625Q148.9986 347.91876 148.9986 346.35626Q148.9986 345.35626 149.32672 344.60626Q149.67047 343.84064 150.34235 343.46564Q151.02985 343.09064 151.84235 343.09064Q152.84235 343.09064 153.48297 343.60626Q154.13922 344.10626 154.32672 345.0594L153.29547 345.21564Q153.15485 344.59064 152.77985 344.27814Q152.40485 343.95 151.8736 343.95Q151.07672 343.95 150.57672 344.52814Q150.07672 345.09064 150.07672 346.325Q150.07672 347.59064 150.5611 348.15314Q151.04547 348.71564 151.8111 348.71564Q152.4361 348.71564 152.84235 348.34064Q153.26422 347.96564 153.38922 347.16876ZM155.32672 349.45L155.32672 340.85626L156.3736 340.85626L156.3736 343.9344Q157.10797 343.09064 158.23297 343.09064Q158.9361 343.09064 159.4361 343.3719Q159.95172 343.6375 160.17047 344.1219Q160.38922 344.59064 160.38922 345.5125L160.38922 349.45L159.34235 349.45L159.34235 345.5125Q159.34235 344.71564 158.9986 344.35626Q158.65485 343.9969 158.02985 343.9969Q157.5611 343.9969 157.13922 344.2469Q156.73297 344.48126 156.54547 344.90314Q156.3736 345.3094 156.3736 346.04376L156.3736 349.45L155.32672 349.45ZM166.38922 347.16876L167.42047 347.3094Q167.2486 348.3719 166.54547 348.98126Q165.84235 349.59064 164.82672 349.59064Q163.54547 349.59064 162.76422 348.7625Q161.9986 347.91876 161.9986 346.35626Q161.9986 345.35626 162.32672 344.60626Q162.67047 343.84064 163.34235 343.46564Q164.02985 343.09064 164.84235 343.09064Q165.84235 343.09064 166.48297 343.60626Q167.13922 344.10626 167.32672 345.0594L166.29547 345.21564Q166.15485 344.59064 165.77985 344.27814Q165.40485 343.95 164.8736 343.95Q164.07672 343.95 163.57672 344.52814Q163.07672 345.09064 163.07672 346.325Q163.07672 347.59064 163.5611 348.15314Q164.04547 348.71564 164.8111 348.71564Q165.4361 348.71564 165.84235 348.34064Q166.26422 347.96564 166.38922 347.16876ZM168.32672 349.45L168.32672 340.85626L169.3736 340.85626L169.3736 343.9344Q170.10797 343.09064 171.23297 343.09064Q171.9361 343.09064 172.4361 343.3719Q172.95172 343.6375 173.17047 344.1219Q173.38922 344.59064 173.38922 345.5125L173.38922 349.45L172.34235 349.45L172.34235 345.5125Q172.34235 344.71564 171.9986 344.35626Q171.65485 343.9969 171.02985 343.9969Q170.5611 343.9969 170.13922 344.2469Q169.73297 344.48126 169.54547 344.90314Q169.3736 345.3094 169.3736 346.04376L169.3736 349.45L168.32672 349.45ZM179.38922 348.6844Q178.79547 349.1844 178.2486 349.3875Q177.71735 349.59064 177.09235 349.59064Q176.0611 349.59064 175.51422 349.09064Q174.96735 348.59064 174.96735 347.8094Q174.96735 347.35626 175.17047 346.98126Q175.3736 346.59064 175.71735 346.3719Q176.0611 346.1375 176.48297 346.02814Q176.77985 345.9344 177.42047 345.85626Q178.6861 345.71564 179.29547 345.4969Q179.29547 345.27814 179.29547 345.23126Q179.29547 344.575 178.9986 344.3094Q178.59235 343.96564 177.79547 343.96564Q177.0611 343.96564 176.70172 344.23126Q176.34235 344.48126 176.17047 345.1375L175.13922 344.9969Q175.27985 344.34064 175.60797 343.9344Q175.9361 343.52814 176.54547 343.3094Q177.15485 343.09064 177.95172 343.09064Q178.7486 343.09064 179.2486 343.27814Q179.7486 343.46564 179.98297 343.7469Q180.21735 344.02814 180.3111 344.46564Q180.35797 344.73126 180.35797 345.4344L180.35797 346.84064Q180.35797 348.3094 180.42047 348.7Q180.4986 349.09064 180.70172 349.45L179.59235 349.45Q179.4361 349.1219 179.38922 348.6844ZM179.29547 346.325Q178.71735 346.5594 177.57672 346.73126Q176.92047 346.825 176.65485 346.95Q176.38922 347.0594 176.23297 347.27814Q176.09235 347.4969 176.09235 347.77814Q176.09235 348.2 176.40485 348.48126Q176.73297 348.7625 177.34235 348.7625Q177.95172 348.7625 178.42047 348.4969Q178.90485 348.23126 179.1236 347.7625Q179.29547 347.40314 179.29547 346.71564L179.29547 346.325ZM184.6236 348.5125L184.77985 349.4344Q184.32672 349.52814 183.98297 349.52814Q183.40485 349.52814 183.09235 349.35626Q182.77985 349.16876 182.63922 348.8719Q182.51422 348.575 182.51422 347.6219L182.51422 344.04376L181.7486 344.04376L181.7486 343.23126L182.51422 343.23126L182.51422 341.6844L183.5611 341.0594L183.5611 343.23126L184.6236 343.23126L184.6236 344.04376L183.5611 344.04376L183.5611 347.6844Q183.5611 348.1375 183.60797 348.2625Q183.67047 348.3875 183.79547 348.46564Q183.92047 348.54376 184.15485 348.54376Q184.34235 348.54376 184.6236 348.5125Z" fill-rule="nonzero"/><path fill="#ffffff" d="M294.10938 349.45L294.10938 341.8719L291.28125 341.8719L291.28125 340.85626L298.09375 340.85626L298.09375 341.8719L295.25 341.8719L295.25 349.45L294.10938 349.45ZM303.04688 347.45L304.14062 347.575Q303.89062 348.52814 303.1875 349.0594Q302.48438 349.59064 301.40625 349.59064Q300.04688 349.59064 299.23438 348.7469Q298.4375 347.90314 298.4375 346.3875Q298.4375 344.825 299.25 343.96564Q300.0625 343.09064 301.34375 343.09064Q302.59375 343.09064 303.375 343.9344Q304.17188 344.77814 304.17188 346.325Q304.17188 346.41876 304.17188 346.60626L299.53125 346.60626Q299.59375 347.6375 300.10938 348.1844Q300.625 348.71564 301.40625 348.71564Q301.98438 348.71564 302.39062 348.41876Q302.8125 348.10626 303.04688 347.45ZM299.59375 345.7469L303.0625 345.7469Q303.0 344.95 302.67188 344.5594Q302.15625 343.95 301.35938 343.95Q300.625 343.95 300.125 344.4344Q299.64062 344.91876 299.59375 345.7469ZM305.09375 349.45L307.35938 346.21564L305.26562 343.23126L306.57812 343.23126L307.53125 344.6844Q307.79688 345.10626 307.96875 345.3875Q308.21875 344.9969 308.4375 344.7L309.48438 343.23126L310.75 343.23126L308.59375 346.15314L310.90625 349.45L309.625 349.45L308.34375 347.5125L308.0 346.9969L306.35938 349.45L305.09375 349.45ZM313.09375 348.5125L313.25 349.4344Q312.79688 349.52814 312.45312 349.52814Q311.875 349.52814 311.5625 349.35626Q311.25 349.16876 311.10938 348.8719Q310.98438 348.575 310.98438 347.6219L310.98438 344.04376L310.21875 344.04376L310.21875 343.23126L310.98438 343.23126L310.98438 341.6844L312.03125 341.0594L312.03125 343.23126L313.09375 343.23126L313.09375 344.04376L312.03125 344.04376L312.03125 347.6844Q312.03125 348.1375 312.07812 348.2625Q312.14062 348.3875 312.26562 348.46564Q312.39062 348.54376 312.625 348.54376Q312.8125 348.54376 313.09375 348.5125ZM317.85938 347.16876L318.89062 347.3094Q318.71875 348.3719 318.01562 348.98126Q317.3125 349.59064 316.29688 349.59064Q315.01562 349.59064 314.23438 348.7625Q313.46875 347.91876 313.46875 346.35626Q313.46875 345.35626 313.79688 344.60626Q314.14062 343.84064 314.8125 343.46564Q315.5 343.09064 316.3125 343.09064Q317.3125 343.09064 317.95312 343.60626Q318.60938 344.10626 318.79688 345.0594L317.76562 345.21564Q317.625 344.59064 317.25 344.27814Q316.875 343.95 316.34375 343.95Q315.54688 343.95 315.04688 344.52814Q314.54688 345.09064 314.54688 346.325Q314.54688 347.59064 315.03125 348.15314Q315.51562 348.71564 316.28125 348.71564Q316.90625 348.71564 317.3125 348.34064Q317.73438 347.96564 317.85938 347.16876ZM319.79688 349.45L319.79688 340.85626L320.84375 340.85626L320.84375 343.9344Q321.57812 343.09064 322.70312 343.09064Q323.40625 343.09064 323.90625 343.3719Q324.42188 343.6375 324.64062 344.1219Q324.85938 344.59064 324.85938 345.5125L324.85938 349.45L323.8125 349.45L323.8125 345.5125Q323.8125 344.71564 323.46875 344.35626Q323.125 343.9969 322.5 343.9969Q322.03125 343.9969 321.60938 344.2469Q321.20312 344.48126 321.01562 344.90314Q320.84375 345.3094 320.84375 346.04376L320.84375 349.45L319.79688 349.45ZM330.85938 348.6844Q330.26562 349.1844 329.71875 349.3875Q329.1875 349.59064 328.5625 349.59064Q327.53125 349.59064 326.98438 349.09064Q326.4375 348.59064 326.4375 347.8094Q326.4375 347.35626 326.64062 346.98126Q326.84375 346.59064 327.1875 346.3719Q327.53125 346.1375 327.95312 346.02814Q328.25 345.9344 328.89062 345.85626Q330.15625 345.71564 330.76562 345.4969Q330.76562 345.27814 330.76562 345.23126Q330.76562 344.575 330.46875 344.3094Q330.0625 343.96564 329.26562 343.96564Q328.53125 343.96564 328.17188 344.23126Q327.8125 344.48126 327.64062 345.1375L326.60938 344.9969Q326.75 344.34064 327.07812 343.9344Q327.40625 343.52814 328.01562 343.3094Q328.625 343.09064 329.42188 343.09064Q330.21875 343.09064 330.71875 343.27814Q331.21875 343.46564 331.45312 343.7469Q331.6875 344.02814 331.78125 344.46564Q331.82812 344.73126 331.82812 345.4344L331.82812 346.84064Q331.82812 348.3094 331.89062 348.7Q331.96875 349.09064 332.17188 349.45L331.0625 349.45Q330.90625 349.1219 330.85938 348.6844ZM330.76562 346.325Q330.1875 346.5594 329.04688 346.73126Q328.39062 346.825 328.125 346.95Q327.85938 347.0594 327.70312 347.27814Q327.5625 347.4969 327.5625 347.77814Q327.5625 348.2 327.875 348.48126Q328.20312 348.7625 328.8125 348.7625Q329.42188 348.7625 329.89062 348.4969Q330.375 348.23126 330.59375 347.7625Q330.76562 347.40314 330.76562 346.71564L330.76562 346.325ZM336.09375 348.5125L336.25 349.4344Q335.79688 349.52814 335.45312 349.52814Q334.875 349.52814 334.5625 349.35626Q334.25 349.16876 334.10938 348.8719Q333.98438 348.575 333.98438 347.6219L333.98438 344.04376L333.21875 344.04376L333.21875 343.23126L333.98438 343.23126L333.98438 341.6844L335.03125 341.0594L335.03125 343.23126L336.09375 343.23126L336.09375 344.04376L335.03125 344.04376L335.03125 347.6844Q335.03125 348.1375 335.07812 348.2625Q335.14062 348.3875 335.26562 348.46564Q335.39062 348.54376 335.625 348.54376Q335.8125 348.54376 336.09375 348.5125Z" fill-rule="nonzero"/><path fill="#ffffff" d="M453.90765 348.52814Q454.70453 349.075 455.36078 349.325L455.03265 350.1219Q454.11078 349.77814 453.1889 349.0594Q452.23578 349.59064 451.07953 349.59064Q449.90765 349.59064 448.95453 349.02814Q448.01703 348.46564 447.5014 347.45Q446.98578 346.4344 446.98578 345.15314Q446.98578 343.8875 447.5014 342.84064Q448.01703 341.79376 448.97015 341.2469Q449.92328 340.7 451.09515 340.7Q452.28265 340.7 453.23578 341.27814Q454.20453 341.84064 454.70453 342.85626Q455.20453 343.8719 455.20453 345.15314Q455.20453 346.21564 454.8764 347.0594Q454.5639 347.90314 453.90765 348.52814ZM451.40765 347.075Q452.39203 347.35626 453.03265 347.90314Q454.03265 346.98126 454.03265 345.15314Q454.03265 344.10626 453.67328 343.325Q453.3139 342.54376 452.6264 342.1219Q451.95453 341.6844 451.11078 341.6844Q449.82953 341.6844 448.98578 342.5594Q448.15765 343.41876 448.15765 345.15314Q448.15765 346.825 448.98578 347.73126Q449.8139 348.6219 451.11078 348.6219Q451.72015 348.6219 452.2514 348.3875Q451.72015 348.04376 451.1264 347.90314L451.40765 347.075ZM460.34515 349.45L460.34515 348.52814Q459.61078 349.59064 458.36078 349.59064Q457.8139 349.59064 457.32953 349.3875Q456.86078 349.16876 456.6264 348.85626Q456.39203 348.52814 456.29828 348.0594Q456.23578 347.7625 456.23578 347.075L456.23578 343.23126L457.29828 343.23126L457.29828 346.6844Q457.29828 347.4969 457.36078 347.79376Q457.45453 348.2 457.76703 348.45Q458.09515 348.6844 458.57953 348.6844Q459.04828 348.6844 459.45453 348.45Q459.8764 348.2 460.04828 347.77814Q460.23578 347.35626 460.23578 346.5594L460.23578 343.23126L461.28265 343.23126L461.28265 349.45L460.34515 349.45ZM463.26703 342.075L463.26703 340.85626L464.32953 340.85626L464.32953 342.075L463.26703 342.075ZM463.26703 349.45L463.26703 343.23126L464.32953 343.23126L464.32953 349.45L463.26703 349.45ZM470.32953 347.16876L471.36078 347.3094Q471.1889 348.3719 470.48578 348.98126Q469.78265 349.59064 468.76703 349.59064Q467.48578 349.59064 466.70453 348.7625Q465.9389 347.91876 465.9389 346.35626Q465.9389 345.35626 466.26703 344.60626Q466.61078 343.84064 467.28265 343.46564Q467.97015 343.09064 468.78265 343.09064Q469.78265 343.09064 470.42328 343.60626Q471.07953 344.10626 471.26703 345.0594L470.23578 345.21564Q470.09515 344.59064 469.72015 344.27814Q469.34515 343.95 468.8139 343.95Q468.01703 343.95 467.51703 344.52814Q467.01703 345.09064 467.01703 346.325Q467.01703 347.59064 467.5014 348.15314Q467.98578 348.71564 468.7514 348.71564Q469.3764 348.71564 469.78265 348.34064Q470.20453 347.96564 470.32953 347.16876ZM472.26703 349.45L472.26703 340.85626L473.32953 340.85626L473.32953 345.7625L475.8139 343.23126L477.1889 343.23126L474.79828 345.52814L477.42328 349.45L476.1264 349.45L474.0639 346.2625L473.32953 346.98126L473.32953 349.45L472.26703 349.45ZM482.32953 347.16876L483.36078 347.3094Q483.1889 348.3719 482.48578 348.98126Q481.78265 349.59064 480.76703 349.59064Q479.48578 349.59064 478.70453 348.7625Q477.9389 347.91876 477.9389 346.35626Q477.9389 345.35626 478.26703 344.60626Q478.61078 343.84064 479.28265 343.46564Q479.97015 343.09064 480.78265 343.09064Q481.78265 343.09064 482.42328 343.60626Q483.07953 344.10626 483.26703 345.0594L482.23578 345.21564Q482.09515 344.59064 481.72015 344.27814Q481.34515 343.95 480.8139 343.95Q480.01703 343.95 479.51703 344.52814Q479.01703 345.09064 479.01703 346.325Q479.01703 347.59064 479.5014 348.15314Q479.98578 348.71564 480.7514 348.71564Q481.3764 348.71564 481.78265 348.34064Q482.20453 347.96564 482.32953 347.16876ZM484.26703 349.45L484.26703 340.85626L485.3139 340.85626L485.3139 343.9344Q486.04828 343.09064 487.17328 343.09064Q487.8764 343.09064 488.3764 343.3719Q488.89203 343.6375 489.11078 344.1219Q489.32953 344.59064 489.32953 345.5125L489.32953 349.45L488.28265 349.45L488.28265 345.5125Q488.28265 344.71564 487.9389 344.35626Q487.59515 343.9969 486.97015 343.9969Q486.5014 343.9969 486.07953 344.2469Q485.67328 344.48126 485.48578 344.90314Q485.3139 345.3094 485.3139 346.04376L485.3139 349.45L484.26703 349.45ZM495.32953 348.6844Q494.73578 349.1844 494.1889 349.3875Q493.65765 349.59064 493.03265 349.59064Q492.0014 349.59064 491.45453 349.09064Q490.90765 348.59064 490.90765 347.8094Q490.90765 347.35626 491.11078 346.98126Q491.3139 346.59064 491.65765 346.3719Q492.0014 346.1375 492.42328 346.02814Q492.72015 345.9344 493.36078 345.85626Q494.6264 345.71564 495.23578 345.4969Q495.23578 345.27814 495.23578 345.23126Q495.23578 344.575 494.9389 344.3094Q494.53265 343.96564 493.73578 343.96564Q493.0014 343.96564 492.64203 344.23126Q492.28265 344.48126 492.11078 345.1375L491.07953 344.9969Q491.22015 344.34064 491.54828 343.9344Q491.8764 343.52814 492.48578 343.3094Q493.09515 343.09064 493.89203 343.09064Q494.6889 343.09064 495.1889 343.27814Q495.6889 343.46564 495.92328 343.7469Q496.15765 344.02814 496.2514 344.46564Q496.29828 344.73126 496.29828 345.4344L496.29828 346.84064Q496.29828 348.3094 496.36078 348.7Q496.4389 349.09064 496.64203 349.45L495.53265 349.45Q495.3764 349.1219 495.32953 348.6844ZM495.23578 346.325Q494.65765 346.5594 493.51703 346.73126Q492.86078 346.825 492.59515 346.95Q492.32953 347.0594 492.17328 347.27814Q492.03265 347.4969 492.03265 347.77814Q492.03265 348.2 492.34515 348.48126Q492.67328 348.7625 493.28265 348.7625Q493.89203 348.7625 494.36078 348.4969Q494.84515 348.23126 495.0639 347.7625Q495.23578 347.40314 495.23578 346.71564L495.23578 346.325ZM500.5639 348.5125L500.72015 349.4344Q500.26703 349.52814 499.92328 349.52814Q499.34515 349.52814 499.03265 349.35626Q498.72015 349.16876 498.57953 348.8719Q498.45453 348.575 498.45453 347.6219L498.45453 344.04376L497.6889 344.04376L497.6889 343.23126L498.45453 343.23126L498.45453 341.6844L499.5014 341.0594L499.5014 343.23126L500.5639 343.23126L500.5639 344.04376L499.5014 344.04376L499.5014 347.6844Q499.5014 348.1375 499.54828 348.2625Q499.61078 348.3875 499.73578 348.46564Q499.86078 348.54376 500.09515 348.54376Q500.28265 348.54376 500.5639 348.5125Z" fill-rule="nonzero"/><path fill="#ffffff" d="M20.01875 37.55L20.01875 23.2375L25.39375 23.2375Q27.034374 23.2375 28.01875 23.675Q29.003124 24.096874 29.565624 25.003124Q30.128124 25.909374 30.128124 26.89375Q30.128124 27.815624 29.628124 28.628124Q29.14375 29.440624 28.128124 29.925Q29.425 30.315624 30.128124 31.2375Q30.83125 32.14375 30.83125 33.39375Q30.83125 34.409374 30.39375 35.26875Q29.971874 36.128124 29.346874 36.596874Q28.721874 37.065624 27.784374 37.315624Q26.846874 37.55 25.471874 37.55L20.01875 37.55ZM21.909374 29.253124L25.003124 29.253124Q26.26875 29.253124 26.815624 29.08125Q27.534374 28.8625 27.89375 28.378124Q28.26875 27.878124 28.26875 27.1125Q28.26875 26.409374 27.925 25.8625Q27.58125 25.315624 26.940624 25.128124Q26.315624 24.925 24.76875 24.925L21.909374 24.925L21.909374 29.253124ZM21.909374 35.8625L25.471874 35.8625Q26.39375 35.8625 26.76875 35.784374Q27.425 35.675 27.8625 35.409374Q28.3 35.128124 28.58125 34.6125Q28.8625 34.08125 28.8625 33.39375Q28.8625 32.596874 28.45625 32.003124Q28.05 31.409374 27.315624 31.175Q26.58125 30.940624 25.221874 30.940624L21.909374 30.940624L21.909374 35.8625ZM39.971874 34.20625L41.784374 34.440624Q41.3625 36.01875 40.190624 36.909374Q39.034374 37.784374 37.221874 37.784374Q34.95625 37.784374 33.6125 36.39375Q32.284374 34.9875 32.284374 32.45625Q32.284374 29.83125 33.628124 28.39375Q34.971874 26.940624 37.128124 26.940624Q39.20625 26.940624 40.51875 28.3625Q41.846874 29.76875 41.846874 32.346874Q41.846874 32.503124 41.83125 32.815624L34.096874 32.815624Q34.190624 34.51875 35.065624 35.425Q35.940624 36.33125 37.2375 36.33125Q38.20625 36.33125 38.878124 35.83125Q39.565624 35.315624 39.971874 34.20625ZM34.190624 31.3625L39.9875 31.3625Q39.878124 30.065624 39.33125 29.409374Q38.4875 28.39375 37.14375 28.39375Q35.940624 28.39375 35.1125 29.20625Q34.284374 30.003124 34.190624 31.3625ZM45.784374 37.55L42.6125 27.175L44.425 27.175L46.08125 33.159374L46.690624 35.39375Q46.7375 35.221874 47.221874 33.253124L48.878124 27.175L50.690624 27.175L52.2375 33.190624L52.753124 35.175L53.346874 33.175L55.128124 27.175L56.83125 27.175L53.596874 37.55L51.76875 37.55L50.1125 31.33125L49.721874 29.565624L47.6125 37.55L45.784374 37.55ZM65.97188 34.20625L67.78438 34.440624Q67.3625 36.01875 66.19063 36.909374Q65.03438 37.784374 63.221874 37.784374Q60.95625 37.784374 59.6125 36.39375Q58.284374 34.9875 58.284374 32.45625Q58.284374 29.83125 59.628124 28.39375Q60.971874 26.940624 63.128124 26.940624Q65.20625 26.940624 66.51875 28.3625Q67.84688 29.76875 67.84688 32.346874Q67.84688 32.503124 67.83125 32.815624L60.096874 32.815624Q60.190624 34.51875 61.065624 35.425Q61.940624 36.33125 63.2375 36.33125Q64.20625 36.33125 64.87813 35.83125Q65.56563 35.315624 65.97188 34.20625ZM60.190624 31.3625L65.9875 31.3625Q65.87813 30.065624 65.33125 29.409374Q64.4875 28.39375 63.14375 28.39375Q61.940624 28.39375 61.1125 29.20625Q60.284374 30.003124 60.190624 31.3625ZM69.84688 37.55L69.84688 27.175L71.425 27.175L71.425 28.753124Q72.03438 27.64375 72.55 27.3Q73.06563 26.940624 73.675 26.940624Q74.56563 26.940624 75.4875 27.503124L74.87813 29.14375Q74.2375 28.753124 73.59688 28.753124Q73.01875 28.753124 72.55 29.1125Q72.09688 29.45625 71.89375 30.065624Q71.6125 31.003124 71.6125 32.1125L71.6125 37.55L69.84688 37.55ZM80.70625 35.971874L80.95625 37.534374Q80.22188 37.690624 79.62813 37.690624Q78.675 37.690624 78.14375 37.39375Q77.62813 37.08125 77.40938 36.596874Q77.19063 36.096874 77.19063 34.51875L77.19063 28.55L75.90938 28.55L75.90938 27.175L77.19063 27.175L77.19063 24.6125L78.94063 23.55L78.94063 27.175L80.70625 27.175L80.70625 28.55L78.94063 28.55L78.94063 34.6125Q78.94063 35.3625 79.03438 35.58125Q79.12813 35.784374 79.33125 35.925Q79.55 36.05 79.94063 36.05Q80.22188 36.05 80.70625 35.971874ZM89.65938 37.55L89.65938 36.01875Q88.45625 37.784374 86.37813 37.784374Q85.45625 37.784374 84.65938 37.440624Q83.8625 37.08125 83.47188 36.55Q83.09688 36.01875 82.94063 35.2375Q82.83125 34.721874 82.83125 33.596874L82.83125 27.175L84.58125 27.175L84.58125 32.925Q84.58125 34.3 84.69063 34.784374Q84.8625 35.471874 85.39375 35.878124Q85.94063 36.26875 86.72188 36.26875Q87.51875 36.26875 88.20625 35.8625Q88.90938 35.45625 89.19063 34.76875Q89.4875 34.065624 89.4875 32.7375L89.4875 27.175L91.2375 27.175L91.2375 37.55L89.65938 37.55ZM92.8625 37.55L92.8625 27.175L94.45625 27.175L94.45625 28.659374Q95.59688 26.940624 97.75313 26.940624Q98.69063 26.940624 99.47188 27.284374Q100.26875 27.6125 100.65938 28.159374Q101.05 28.70625 101.20625 29.45625Q101.3 29.95625 101.3 31.175L101.3 37.55L99.53438 37.55L99.53438 31.2375Q99.53438 30.159374 99.33125 29.628124Q99.12813 29.096874 98.59688 28.784374Q98.08125 28.471874 97.37813 28.471874Q96.25313 28.471874 95.44063 29.190624Q94.62813 29.89375 94.62813 31.878124L94.62813 37.55L92.8625 37.55ZM102.55 38.409374L104.25313 38.659374Q104.3625 39.45625 104.84688 39.815624Q105.50313 40.3 106.64375 40.3Q107.8625 40.3 108.51875 39.815624Q109.19063 39.33125 109.425 38.45625Q109.56563 37.909374 109.55 36.190624Q108.39375 37.55 106.675 37.55Q104.53438 37.55 103.3625 36.003124Q102.19063 34.45625 102.19063 32.3Q102.19063 30.815624 102.72188 29.565624Q103.26875 28.315624 104.28438 27.628124Q105.31563 26.940624 106.69063 26.940624Q108.51875 26.940624 109.72188 28.425L109.72188 27.175L111.33125 27.175L111.33125 36.14375Q111.33125 38.565624 110.83125 39.565624Q110.34688 40.58125 109.26875 41.159374Q108.20625 41.753124 106.64375 41.753124Q104.8 41.753124 103.64375 40.925Q102.50313 40.096874 102.55 38.409374ZM104.00313 32.175Q104.00313 34.221874 104.81563 35.159374Q105.62813 36.096874 106.84688 36.096874Q108.05 36.096874 108.8625 35.159374Q109.69063 34.221874 109.69063 32.2375Q109.69063 30.33125 108.84688 29.3625Q108.00313 28.39375 106.81563 28.39375Q105.64375 28.39375 104.81563 29.346874Q104.00313 30.3 104.00313 32.175ZM123.22188 41.753124Q121.76875 39.925 120.76875 37.471874Q119.76875 35.003124 119.76875 32.3625Q119.76875 30.034374 120.51875 27.909374Q121.39375 25.440624 123.22188 22.9875L124.4875 22.9875Q123.3 25.01875 122.925 25.89375Q122.33125 27.2375 121.9875 28.70625Q121.56563 30.534374 121.56563 32.378124Q121.56563 37.065624 124.4875 41.753124L123.22188 41.753124ZM127.03438 37.55L127.03438 23.2375L129.89375 23.2375L133.26875 33.3625Q133.7375 34.784374 133.95625 35.4875Q134.20625 34.70625 134.72188 33.190624L138.14375 23.2375L140.69063 23.2375L140.69063 37.55L138.87813 37.55L138.87813 25.565624L134.70625 37.55L133.00313 37.55L128.8625 25.3625L128.8625 37.55L127.03438 37.55ZM143.87813 25.253124L143.87813 23.2375L145.64375 23.2375L145.64375 25.253124L143.87813 25.253124ZM143.87813 37.55L143.87813 27.175L145.64375 27.175L145.64375 37.55L143.87813 37.55ZM151.70625 35.971874L151.95625 37.534374Q151.22188 37.690624 150.62813 37.690624Q149.675 37.690624 149.14375 37.39375Q148.62813 37.08125 148.40938 36.596874Q148.19063 36.096874 148.19063 34.51875L148.19063 28.55L146.90938 28.55L146.90938 27.175L148.19063 27.175L148.19063 24.6125L149.94063 23.55L149.94063 27.175L151.70625 27.175L151.70625 28.55L149.94063 28.55L149.94063 34.6125Q149.94063 35.3625 150.03438 35.58125Q150.12813 35.784374 150.33125 35.925Q150.55 36.05 150.94063 36.05Q151.22188 36.05 151.70625 35.971874ZM157.70625 35.971874L157.95625 37.534374Q157.22188 37.690624 156.62813 37.690624Q155.675 37.690624 155.14375 37.39375Q154.62813 37.08125 154.40938 36.596874Q154.19063 36.096874 154.19063 34.51875L154.19063 28.55L152.90938 28.55L152.90938 27.175L154.19063 27.175L154.19063 24.6125L155.94063 23.55L155.94063 27.175L157.70625 27.175L157.70625 28.55L155.94063 28.55L155.94063 34.6125Q155.94063 35.3625 156.03438 35.58125Q156.12813 35.784374 156.33125 35.925Q156.55 36.05 156.94063 36.05Q157.22188 36.05 157.70625 35.971874ZM166.97188 34.20625L168.78438 34.440624Q168.3625 36.01875 167.19063 36.909374Q166.03438 37.784374 164.22188 37.784374Q161.95625 37.784374 160.6125 36.39375Q159.28438 34.9875 159.28438 32.45625Q159.28438 29.83125 160.62813 28.39375Q161.97188 26.940624 164.12813 26.940624Q166.20625 26.940624 167.51875 28.3625Q168.84688 29.76875 168.84688 32.346874Q168.84688 32.503124 168.83125 32.815624L161.09688 32.815624Q161.19063 34.51875 162.06563 35.425Q162.94063 36.33125 164.2375 36.33125Q165.20625 36.33125 165.87813 35.83125Q166.56563 35.315624 166.97188 34.20625ZM161.19063 31.3625L166.9875 31.3625Q166.87813 30.065624 166.33125 29.409374Q165.4875 28.39375 164.14375 28.39375Q162.94063 28.39375 162.1125 29.20625Q161.28438 30.003124 161.19063 31.3625ZM170.83125 37.55L170.83125 23.2375L172.58125 23.2375L172.58125 37.55L170.83125 37.55ZM176.01875 41.753124L174.76875 41.753124Q177.675 37.065624 177.675 32.378124Q177.675 30.534374 177.26875 28.7375Q176.925 27.26875 176.33125 25.925Q175.95625 25.034374 174.76875 22.9875L176.01875 22.9875Q177.8625 25.440624 178.7375 27.909374Q179.4875 30.034374 179.4875 32.3625Q179.4875 35.003124 178.47188 37.471874Q177.47188 39.925 176.01875 41.753124ZM187.87813 25.253124L187.87813 23.2375L189.64375 23.2375L189.64375 25.253124L187.87813 25.253124ZM187.87813 37.55L187.87813 27.175L189.64375 27.175L189.64375 37.55L187.87813 37.55ZM191.8625 37.55L191.8625 27.175L193.45625 27.175L193.45625 28.659374Q194.59688 26.940624 196.75313 26.940624Q197.69063 26.940624 198.47188 27.284374Q199.26875 27.6125 199.65938 28.159374Q200.05 28.70625 200.20625 29.45625Q200.3 29.95625 200.3 31.175L200.3 37.55L198.53438 37.55L198.53438 31.2375Q198.53438 30.159374 198.33125 29.628124Q198.12813 29.096874 197.59688 28.784374Q197.08125 28.471874 196.37813 28.471874Q195.25313 28.471874 194.44063 29.190624Q193.62813 29.89375 193.62813 31.878124L193.62813 37.55L191.8625 37.55ZM208.09688 37.55L208.09688 23.2375L213.4875 23.2375Q214.925 23.2375 215.675 23.3625Q216.72188 23.55 217.44063 24.05Q218.15938 24.534374 218.58125 25.425Q219.01875 26.315624 219.01875 27.378124Q219.01875 29.20625 217.84688 30.471874Q216.69063 31.721874 213.65938 31.721874L209.9875 31.721874L209.9875 37.55L208.09688 37.55ZM209.9875 30.034374L213.69063 30.034374Q215.51875 30.034374 216.28438 29.3625Q217.06563 28.675 217.06563 27.425Q217.06563 26.534374 216.6125 25.89375Q216.15938 25.253124 215.425 25.05Q214.94063 24.925 213.64375 24.925L209.9875 24.925L209.9875 30.034374ZM227.65938 37.55L227.65938 36.01875Q226.45625 37.784374 224.37813 37.784374Q223.45625 37.784374 222.65938 37.440624Q221.8625 37.08125 221.47188 36.55Q221.09688 36.01875 220.94063 35.2375Q220.83125 34.721874 220.83125 33.596874L220.83125 27.175L222.58125 27.175L222.58125 32.925Q222.58125 34.3 222.69063 34.784374Q222.8625 35.471874 223.39375 35.878124Q223.94063 36.26875 224.72188 36.26875Q225.51875 36.26875 226.20625 35.8625Q226.90938 35.45625 227.19063 34.76875Q227.4875 34.065624 227.4875 32.7375L227.4875 27.175L229.2375 27.175L229.2375 37.55L227.65938 37.55ZM230.8625 37.55L230.8625 27.175L232.45625 27.175L232.45625 28.659374Q233.59688 26.940624 235.75313 26.940624Q236.69063 26.940624 237.47188 27.284374Q238.26875 27.6125 238.65938 28.159374Q239.05 28.70625 239.20625 29.45625Q239.3 29.95625 239.3 31.175L239.3 37.55L237.53438 37.55L237.53438 31.2375Q237.53438 30.159374 237.33125 29.628124Q237.12813 29.096874 236.59688 28.784374Q236.08125 28.471874 235.37813 28.471874Q234.25313 28.471874 233.44063 29.190624Q232.62813 29.89375 232.62813 31.878124L232.62813 37.55L230.8625 37.55ZM240.87813 37.55L240.87813 23.2375L242.64375 23.2375L242.64375 31.39375L246.8 27.175L249.06563 27.175L245.1125 31.01875L249.47188 37.55L247.3 37.55L243.87813 32.253124L242.64375 33.440624L242.64375 37.55L240.87813 37.55ZM254.70625 35.971874L254.95625 37.534374Q254.22188 37.690624 253.62813 37.690624Q252.675 37.690624 252.14375 37.39375Q251.62813 37.08125 251.40938 36.596874Q251.19063 36.096874 251.19063 34.51875L251.19063 28.55L249.90938 28.55L249.90938 27.175L251.19063 27.175L251.19063 24.6125L252.94063 23.55L252.94063 27.175L254.70625 27.175L254.70625 28.55L252.94063 28.55L252.94063 34.6125Q252.94063 35.3625 253.03438 35.58125Q253.12813 35.784374 253.33125 35.925Q253.55 36.05 253.94063 36.05Q254.22188 36.05 254.70625 35.971874ZM263.97186 34.20625L265.78436 34.440624Q265.3625 36.01875 264.1906 36.909374Q263.03436 37.784374 261.22186 37.784374Q258.95624 37.784374 257.6125 36.39375Q256.28436 34.9875 256.28436 32.45625Q256.28436 29.83125 257.6281 28.39375Q258.97186 26.940624 261.1281 26.940624Q263.20624 26.940624 264.51874 28.3625Q265.84686 29.76875 265.84686 32.346874Q265.84686 32.503124 265.83124 32.815624L258.09686 32.815624Q258.1906 34.51875 259.0656 35.425Q259.9406 36.33125 261.2375 36.33125Q262.20624 36.33125 262.8781 35.83125Q263.5656 35.315624 263.97186 34.20625ZM258.1906 31.3625L263.9875 31.3625Q263.8781 30.065624 263.33124 29.409374Q262.4875 28.39375 261.14374 28.39375Q259.9406 28.39375 259.1125 29.20625Q258.28436 30.003124 258.1906 31.3625ZM266.55 37.8L270.70624 22.9875L272.1125 22.9875L267.97186 37.8L266.55 37.8ZM280.0031 37.55L278.2375 37.55L278.2375 26.346874Q277.6125 26.95625 276.58124 27.565624Q275.55 28.159374 274.72186 28.471874L274.72186 26.76875Q276.20624 26.08125 277.3 25.096874Q278.40936 24.096874 278.8625 23.175L280.0031 23.175L280.0031 37.55ZM284.3781 30.4875Q284.3781 27.95625 284.89374 26.409374Q285.425 24.846874 286.45624 24.01875Q287.4875 23.175 289.05 23.175Q290.20624 23.175 291.0656 23.64375Q291.9406 24.096874 292.5031 24.971874Q293.0656 25.846874 293.39374 27.1125Q293.72186 28.3625 293.72186 30.4875Q293.72186 33.003124 293.1906 34.55Q292.675 36.096874 291.64374 36.95625Q290.6281 37.8 289.05 37.8Q286.97186 37.8 285.8 36.315624Q284.3781 34.51875 284.3781 30.4875ZM286.1906 30.4875Q286.1906 34.01875 287.0031 35.190624Q287.83124 36.346874 289.05 36.346874Q290.2531 36.346874 291.08124 35.175Q291.90936 34.003124 291.90936 30.4875Q291.90936 26.95625 291.08124 25.8Q290.2531 24.628124 289.03436 24.628124Q287.8156 24.628124 287.09686 25.659374Q286.1906 26.95625 286.1906 30.4875Z" fill-rule="nonzero"/></svg>