<svg version="1.1" viewBox="0.0 0.0 600.0 371.0" fill="none" stroke="none" stroke-linecap="square" stroke-miterlimit="10" width="600" height="371" xmlns:xlink="http://www.w3.org/1999/xlink" xmlns="http://www.w3.org/2000/svg"><path fill="#111111" d="M0 0L600.0 0L600.0 371.0L0 371.0L0 0Z" fill-rule="nonzero"/><path stroke="#444444" stroke-width="1.0" stroke-linecap="butt" d="M55.5 332.5L581.5 332.5" fill-rule="nonzero"/><path stroke="#444444" stroke-width="1.0" stroke-linecap="butt" d="M55.5 278.5L581.5 278.5" fill-rule="nonzero"/><path stroke="#444444" stroke-width="1.0" stroke-linecap="butt" d="M55.5 224.5L581.5 224.5" fill-rule="nonzero"/><path stroke="#444444" stroke-width="1.0" stroke-linecap="butt" d="M55.5 170.5L581.5 170.5" fill-rule="nonzero"/><path stroke="#444444" stroke-width="1.0" stroke-linecap="butt" d="M55.5 116.5L581.5 116.5" fill-rule="nonzero"/><path stroke="#444444" stroke-width="1.0" stroke-linecap="butt" d="M55.5 61.5L581.5 61.5" fill-rule="nonzero"/><clipPath id="id_0"><path d="M55.55 61.916668L581.45 61.916668L581.45 332.45L55.55 332.45L55.55 61.916668Z" clip-rule="nonzero"/></clipPath><path stroke="#ff9900" stroke-width="2.0" stroke-linecap="butt" clip-path="url(#id_0)" d="M213.0 332.0L111.0 332.0L111.0 277.0C111.0 275.89542 111.89543 275.0 113.0 275.0L211.0 275.0C212.10457 275.0 213.0 275.89542 213.0 277.0Z" fill-rule="nonzero"/><path fill="#ff9900" clip-path="url(#id_0)" d="M213.0 332.0L111.0 332.0L111.0 277.0C111.0 275.89542 111.89543 275.0 113.0 275.0L211.0 275.0C212.10457 275.0 213.0 275.89542 213.0 277.0Z" fill-rule="nonzero"/><path stroke="#ff9900" stroke-width="2.0" stroke-linecap="butt" clip-path="url(#id_0)" d="M370.0 332.0L268.0 332.0L268.0 93.0C268.0 91.89543 268.89542 91.0 270.0 91.0L368.0 91.0C369.10458 91.0 370.0 91.89543 370.0 93.0Z" fill-rule="nonzero"/><path fill="#ff9900" clip-path="url(#id_0)" d="M370.0 332.0L268.0 332.0L268.0 93.0C268.0 91.89543 268.89542 91.0 270.0 91.0L368.0 91.0C369.10458 91.0 370.0 91.89543 370.0 93.0Z" fill-rule="nonzero"/><path stroke="#ff9900" stroke-width="2.0" stroke-linecap="butt" clip-path="url(#id_0)" d="M526.0 332.0L424.0 332.0L424.0 307.0C424.0 305.89542 424.89542 305.0 426.0 305.0L524.0 305.0C525.10455 305.0 526.0 305.89542 526.0 307.0Z" fill-rule="nonzero"/><path fill="#ff9900" clip-path="url(#id_0)" d="M526.0 332.0L424.0 332.0L424.0 307.0C424.0 305.89542 424.89542 305.0 426.0 305.0L524.0 305.0C525.10455 305.0 526.0 305.89542 526.0 307.0Z" fill-rule="nonzero"/><path stroke="#ff9900" stroke-width="3.0" stroke-linejoin="round" stroke-linecap="round" d="M152.5625 287.8956Q152.5625 289.80185 151.90625 290.73935Q151.26562 291.66122 149.875 291.66122Q148.51562 291.66122 147.85938 290.75497Q147.20312 289.84872 147.17188 288.03622L147.17188 286.59872Q147.17188 284.7081 147.8125 283.80185Q148.46875 282.87997 149.85938 282.87997Q151.23438 282.87997 151.89062 283.7706Q152.54688 284.6456 152.5625 286.48935L152.5625 287.8956ZM151.46875 286.41122Q151.46875 285.03622 151.07812 284.41122Q150.70312 283.7706 149.85938 283.7706Q149.03125 283.7706 148.64062 284.41122Q148.26562 285.03622 148.26562 286.3331L148.26562 288.06747Q148.26562 289.44247 148.65625 290.11435Q149.0625 290.7706 149.875 290.7706Q150.67188 290.7706 151.0625 290.1456Q151.45312 289.5206 151.46875 288.19247L151.46875 286.41122ZM159.71875 283.61435L156.1875 291.53622L155.04688 291.53622L158.5625 283.8956L153.95312 283.8956L153.95312 283.00497L159.71875 283.00497L159.71875 283.61435ZM161.28125 290.97372Q161.28125 290.69247 161.4375 290.50497Q161.60938 290.31747 161.9375 290.31747Q162.28125 290.31747 162.45312 290.50497Q162.625 290.69247 162.625 290.97372Q162.625 291.23935 162.45312 291.42685Q162.28125 291.59872 161.9375 291.59872Q161.60938 291.59872 161.4375 291.42685Q161.28125 291.23935 161.28125 290.97372ZM161.29688 285.80185Q161.29688 285.5206 161.45312 285.3331Q161.625 285.1456 161.95312 285.1456Q162.29688 285.1456 162.46875 285.3331Q162.64062 285.5206 162.64062 285.80185Q162.64062 286.06747 162.46875 286.25497Q162.29688 286.42685 161.95312 286.42685Q161.625 286.42685 161.45312 286.25497Q161.29688 286.06747 161.29688 285.80185ZM169.5625 287.8956Q169.5625 289.80185 168.90625 290.73935Q168.26562 291.66122 166.875 291.66122Q165.51562 291.66122 164.85938 290.75497Q164.20312 289.84872 164.17188 288.03622L164.17188 286.59872Q164.17188 284.7081 164.8125 283.80185Q165.46875 282.87997 166.85938 282.87997Q168.23438 282.87997 168.89062 283.7706Q169.54688 284.6456 169.5625 286.48935L169.5625 287.8956ZM168.46875 286.41122Q168.46875 285.03622 168.07812 284.41122Q167.70312 283.7706 166.85938 283.7706Q166.03125 283.7706 165.64062 284.41122Q165.26562 285.03622 165.26562 286.3331L165.26562 288.06747Q165.26562 289.44247 165.65625 290.11435Q166.0625 290.7706 166.875 290.7706Q167.67188 290.7706 168.0625 290.1456Q168.45312 289.5206 168.46875 288.19247L168.46875 286.41122ZM176.79688 291.53622L171.20312 291.53622L171.20312 290.75497L174.15625 287.47372Q174.8125 286.72372 175.0625 286.2706Q175.3125 285.80185 175.3125 285.30185Q175.3125 284.62997 174.90625 284.2081Q174.51562 283.7706 173.82812 283.7706Q173.03125 283.7706 172.57812 284.23935Q172.125 284.69247 172.125 285.5206L171.04688 285.5206Q171.04688 284.3331 171.79688 283.61435Q172.5625 282.87997 173.82812 282.87997Q175.03125 282.87997 175.71875 283.50497Q176.40625 284.12997 176.40625 285.17685Q176.40625 286.42685 174.79688 288.17685L172.51562 290.6456L176.79688 290.6456L176.79688 291.53622Z" fill-rule="nonzero"/><path fill="#000000" d="M152.5625 287.8956Q152.5625 289.80185 151.90625 290.73935Q151.26562 291.66122 149.875 291.66122Q148.51562 291.66122 147.85938 290.75497Q147.20312 289.84872 147.17188 288.03622L147.17188 286.59872Q147.17188 284.7081 147.8125 283.80185Q148.46875 282.87997 149.85938 282.87997Q151.23438 282.87997 151.89062 283.7706Q152.54688 284.6456 152.5625 286.48935L152.5625 287.8956ZM151.46875 286.41122Q151.46875 285.03622 151.07812 284.41122Q150.70312 283.7706 149.85938 283.7706Q149.03125 283.7706 148.64062 284.41122Q148.26562 285.03622 148.26562 286.3331L148.26562 288.06747Q148.26562 289.44247 148.65625 290.11435Q149.0625 290.7706 149.875 290.7706Q150.67188 290.7706 151.0625 290.1456Q151.45312 289.5206 151.46875 288.19247L151.46875 286.41122ZM159.71875 283.61435L156.1875 291.53622L155.04688 291.53622L158.5625 283.8956L153.95312 283.8956L153.95312 283.00497L159.71875 283.00497L159.71875 283.61435ZM161.28125 290.97372Q161.28125 290.69247 161.4375 290.50497Q161.60938 290.31747 161.9375 290.31747Q162.28125 290.31747 162.45312 290.50497Q162.625 290.69247 162.625 290.97372Q162.625 291.23935 162.45312 291.42685Q162.28125 291.59872 161.9375 291.59872Q161.60938 291.59872 161.4375 291.42685Q161.28125 291.23935 161.28125 290.97372ZM161.29688 285.80185Q161.29688 285.5206 161.45312 285.3331Q161.625 285.1456 161.95312 285.1456Q162.29688 285.1456 162.46875 285.3331Q162.64062 285.5206 162.64062 285.80185Q162.64062 286.06747 162.46875 286.25497Q162.29688 286.42685 161.95312 286.42685Q161.625 286.42685 161.45312 286.25497Q161.29688 286.06747 161.29688 285.80185ZM169.5625 287.8956Q169.5625 289.80185 168.90625 290.73935Q168.26562 291.66122 166.875 291.66122Q165.51562 291.66122 164.85938 290.75497Q164.20312 289.84872 164.17188 288.03622L164.17188 286.59872Q164.17188 284.7081 164.8125 283.80185Q165.46875 282.87997 166.85938 282.87997Q168.23438 282.87997 168.89062 283.7706Q169.54688 284.6456 169.5625 286.48935L169.5625 287.8956ZM168.46875 286.41122Q168.46875 285.03622 168.07812 284.41122Q167.70312 283.7706 166.85938 283.7706Q166.03125 283.7706 165.64062 284.41122Q165.26562 285.03622 165.26562 286.3331L165.26562 288.06747Q165.26562 289.44247 165.65625 290.11435Q166.0625 290.7706 166.875 290.7706Q167.67188 290.7706 168.0625 290.1456Q168.45312 289.5206 168.46875 288.19247L168.46875 286.41122ZM176.79688 291.53622L171.20312 291.53622L171.20312 290.75497L174.15625 287.47372Q174.8125 286.72372 175.0625 286.2706Q175.3125 285.80185 175.3125 285.30185Q175.3125 284.62997 174.90625 284.2081Q174.51562 283.7706 173.82812 283.7706Q173.03125 283.7706 172.57812 284.23935Q172.125 284.69247 172.125 285.5206L171.04688 285.5206Q171.04688 284.3331 171.79688 283.61435Q172.5625 282.87997 173.82812 282.87997Q175.03125 282.87997 175.71875 283.50497Q176.40625 284.12997 176.40625 285.17685Q176.40625 286.42685 174.79688 288.17685L172.51562 290.6456L176.79688 290.6456L176.79688 291.53622Z" fill-rule="nonzero"/><path stroke="#ff9900" stroke-width="3.0" stroke-linejoin="round" stroke-linecap="round" d="M309.5625 103.93293Q309.5625 105.83918 308.90625 106.77668Q308.26562 107.698555 306.875 107.698555Q305.51562 107.698555 304.85938 106.792305Q304.20312 105.886055 304.17188 104.073555L304.17188 102.636055Q304.17188 100.74543 304.8125 99.83918Q305.46875 98.917305 306.85938 98.917305Q308.23438 98.917305 308.89062 99.80793Q309.54688 100.68293 309.5625 102.52668L309.5625 103.93293ZM308.46875 102.448555Q308.46875 101.073555 308.07812 100.448555Q307.70312 99.80793 306.85938 99.80793Q306.03125 99.80793 305.64062 100.448555Q305.26562 101.073555 305.26562 102.37043L305.26562 104.104805Q305.26562 105.479805 305.65625 106.15168Q306.0625 106.80793 306.875 106.80793Q307.67188 106.80793 308.0625 106.18293Q308.45312 105.55793 308.46875 104.229805L308.46875 102.448555ZM316.39062 101.261055Q316.39062 101.90168 316.04688 102.40168Q315.70312 102.90168 315.14062 103.18293Q315.79688 103.46418 316.1875 104.02668Q316.57812 104.573555 316.57812 105.27668Q316.57812 106.37043 315.82812 107.042305Q315.09375 107.698555 313.875 107.698555Q312.64062 107.698555 311.89062 107.042305Q311.15625 106.37043 311.15625 105.27668Q311.15625 104.573555 311.53125 104.02668Q311.90625 103.46418 312.57812 103.18293Q312.01562 102.90168 311.6875 102.40168Q311.35938 101.90168 311.35938 101.261055Q311.35938 100.18293 312.04688 99.55793Q312.73438 98.917305 313.875 98.917305Q315.0 98.917305 315.6875 99.55793Q316.39062 100.18293 316.39062 101.261055ZM315.5 105.24543Q315.5 104.52668 315.04688 104.08918Q314.59375 103.636055 313.85938 103.636055Q313.125 103.636055 312.67188 104.08918Q312.23438 104.52668 312.23438 105.261055Q312.23438 105.979805 312.67188 106.40168Q313.10938 106.80793 313.875 106.80793Q314.625 106.80793 315.0625 106.386055Q315.5 105.96418 315.5 105.24543ZM313.875 99.80793Q313.23438 99.80793 312.82812 100.21418Q312.4375 100.604805 312.4375 101.292305Q312.4375 101.93293 312.82812 102.33918Q313.21875 102.74543 313.85938 102.74543Q314.51562 102.74543 314.90625 102.33918Q315.29688 101.93293 315.29688 101.292305Q315.29688 100.636055 314.89062 100.229805Q314.48438 99.80793 313.875 99.80793ZM318.28125 107.011055Q318.28125 106.729805 318.4375 106.542305Q318.60938 106.354805 318.9375 106.354805Q319.28125 106.354805 319.45312 106.542305Q319.625 106.729805 319.625 107.011055Q319.625 107.27668 319.45312 107.46418Q319.28125 107.636055 318.9375 107.636055Q318.60938 107.636055 318.4375 107.46418Q318.28125 107.27668 318.28125 107.011055ZM318.29688 101.83918Q318.29688 101.55793 318.45312 101.37043Q318.625 101.18293 318.95312 101.18293Q319.29688 101.18293 319.46875 101.37043Q319.64062 101.55793 319.64062 101.83918Q319.64062 102.104805 319.46875 102.292305Q319.29688 102.46418 318.95312 102.46418Q318.625 102.46418 318.45312 102.292305Q318.29688 102.104805 318.29688 101.83918ZM325.78125 104.71418L326.96875 104.71418L326.96875 105.58918L325.78125 105.58918L325.78125 107.573555L324.70312 107.573555L324.70312 105.58918L320.8125 105.58918L320.8125 104.948555L324.625 99.042305L325.78125 99.042305L325.78125 104.71418ZM322.04688 104.71418L324.70312 104.71418L324.70312 100.52668L324.5625 100.761055L322.04688 104.71418ZM332.78125 104.71418L333.96875 104.71418L333.96875 105.58918L332.78125 105.58918L332.78125 107.573555L331.70312 107.573555L331.70312 105.58918L327.8125 105.58918L327.8125 104.948555L331.625 99.042305L332.78125 99.042305L332.78125 104.71418ZM329.04688 104.71418L331.70312 104.71418L331.70312 100.52668L331.5625 100.761055L329.04688 104.71418Z" fill-rule="nonzero"/><path fill="#000000" d="M309.5625 103.93293Q309.5625 105.83918 308.90625 106.77668Q308.26562 107.698555 306.875 107.698555Q305.51562 107.698555 304.85938 106.792305Q304.20312 105.886055 304.17188 104.073555L304.17188 102.636055Q304.17188 100.74543 304.8125 99.83918Q305.46875 98.917305 306.85938 98.917305Q308.23438 98.917305 308.89062 99.80793Q309.54688 100.68293 309.5625 102.52668L309.5625 103.93293ZM308.46875 102.448555Q308.46875 101.073555 308.07812 100.448555Q307.70312 99.80793 306.85938 99.80793Q306.03125 99.80793 305.64062 100.448555Q305.26562 101.073555 305.26562 102.37043L305.26562 104.104805Q305.26562 105.479805 305.65625 106.15168Q306.0625 106.80793 306.875 106.80793Q307.67188 106.80793 308.0625 106.18293Q308.45312 105.55793 308.46875 104.229805L308.46875 102.448555ZM316.39062 101.261055Q316.39062 101.90168 316.04688 102.40168Q315.70312 102.90168 315.14062 103.18293Q315.79688 103.46418 316.1875 104.02668Q316.57812 104.573555 316.57812 105.27668Q316.57812 106.37043 315.82812 107.042305Q315.09375 107.698555 313.875 107.698555Q312.64062 107.698555 311.89062 107.042305Q311.15625 106.37043 311.15625 105.27668Q311.15625 104.573555 311.53125 104.02668Q311.90625 103.46418 312.57812 103.18293Q312.01562 102.90168 311.6875 102.40168Q311.35938 101.90168 311.35938 101.261055Q311.35938 100.18293 312.04688 99.55793Q312.73438 98.917305 313.875 98.917305Q315.0 98.917305 315.6875 99.55793Q316.39062 100.18293 316.39062 101.261055ZM315.5 105.24543Q315.5 104.52668 315.04688 104.08918Q314.59375 103.636055 313.85938 103.636055Q313.125 103.636055 312.67188 104.08918Q312.23438 104.52668 312.23438 105.261055Q312.23438 105.979805 312.67188 106.40168Q313.10938 106.80793 313.875 106.80793Q314.625 106.80793 315.0625 106.386055Q315.5 105.96418 315.5 105.24543ZM313.875 99.80793Q313.23438 99.80793 312.82812 100.21418Q312.4375 100.604805 312.4375 101.292305Q312.4375 101.93293 312.82812 102.33918Q313.21875 102.74543 313.85938 102.74543Q314.51562 102.74543 314.90625 102.33918Q315.29688 101.93293 315.29688 101.292305Q315.29688 100.636055 314.89062 100.229805Q314.48438 99.80793 313.875 99.80793ZM318.28125 107.011055Q318.28125 106.729805 318.4375 106.542305Q318.60938 106.354805 318.9375 106.354805Q319.28125 106.354805 319.45312 106.542305Q319.625 106.729805 319.625 107.011055Q319.625 107.27668 319.45312 107.46418Q319.28125 107.636055 318.9375 107.636055Q318.60938 107.636055 318.4375 107.46418Q318.28125 107.27668 318.28125 107.011055ZM318.29688 101.83918Q318.29688 101.55793 318.45312 101.37043Q318.625 101.18293 318.95312 101.18293Q319.29688 101.18293 319.46875 101.37043Q319.64062 101.55793 319.64062 101.83918Q319.64062 102.104805 319.46875 102.292305Q319.29688 102.46418 318.95312 102.46418Q318.625 102.46418 318.45312 102.292305Q318.29688 102.104805 318.29688 101.83918ZM325.78125 104.71418L326.96875 104.71418L326.96875 105.58918L325.78125 105.58918L325.78125 107.573555L324.70312 107.573555L324.70312 105.58918L320.8125 105.58918L320.8125 104.948555L324.625 99.042305L325.78125 99.042305L325.78125 104.71418ZM322.04688 104.71418L324.70312 104.71418L324.70312 100.52668L324.5625 100.761055L322.04688 104.71418ZM332.78125 104.71418L333.96875 104.71418L333.96875 105.58918L332.78125 105.58918L332.78125 107.573555L331.70312 107.573555L331.70312 105.58918L327.8125 105.58918L327.8125 104.948555L331.625 99.042305L332.78125 99.042305L332.78125 104.71418ZM329.04688 104.71418L331.70312 104.71418L331.70312 100.52668L331.5625 100.761055L329.04688 104.71418Z" fill-rule="nonzero"/><path stroke="#ff9900" stroke-width="3.0" stroke-linejoin="round" stroke-linecap="round" d="M465.5625 318.55603Q465.5625 320.46228 464.90625 321.39978Q464.26562 322.32166 462.875 322.32166Q461.51562 322.32166 460.85938 321.4154Q460.20312 320.50916 460.17188 318.69666L460.17188 317.25916Q460.17188 315.36853 460.8125 314.46228Q461.46875 313.5404 462.85938 313.5404Q464.23438 313.5404 464.89062 314.43103Q465.54688 315.30603 465.5625 317.14978L465.5625 318.55603ZM464.46875 317.07166Q464.46875 315.69666 464.07812 315.07166Q463.70312 314.43103 462.85938 314.43103Q462.03125 314.43103 461.64062 315.07166Q461.26562 315.69666 461.26562 316.99353L461.26562 318.7279Q461.26562 320.1029 461.65625 320.77478Q462.0625 321.43103 462.875 321.43103Q463.67188 321.43103 464.0625 320.80603Q464.45312 320.18103 464.46875 318.8529L464.46875 317.07166ZM471.46875 313.6654L471.46875 314.57166L471.26562 314.57166Q470.0 314.6029 469.25 315.33728Q468.5 316.05603 468.375 317.36853Q469.0625 316.6029 470.21875 316.6029Q471.32812 316.6029 472.0 317.38416Q472.67188 318.1654 472.67188 319.4154Q472.67188 320.7279 471.95312 321.52478Q471.23438 322.32166 470.01562 322.32166Q468.79688 322.32166 468.03125 321.38416Q467.28125 320.43103 467.28125 318.94666L467.28125 318.5404Q467.28125 316.18103 468.28125 314.93103Q469.28125 313.68103 471.26562 313.6654L471.46875 313.6654ZM470.04688 317.50916Q469.48438 317.50916 469.01562 317.83728Q468.54688 318.1654 468.35938 318.68103L468.35938 319.07166Q468.35938 320.13416 468.82812 320.77478Q469.3125 321.4154 470.01562 321.4154Q470.75 321.4154 471.17188 320.88416Q471.59375 320.33728 471.59375 319.46228Q471.59375 318.58728 471.17188 318.05603Q470.75 317.50916 470.04688 317.50916ZM474.28125 321.63416Q474.28125 321.3529 474.4375 321.1654Q474.60938 320.9779 474.9375 320.9779Q475.28125 320.9779 475.45312 321.1654Q475.625 321.3529 475.625 321.63416Q475.625 321.89978 475.45312 322.08728Q475.28125 322.25916 474.9375 322.25916Q474.60938 322.25916 474.4375 322.08728Q474.28125 321.89978 474.28125 321.63416ZM474.29688 316.46228Q474.29688 316.18103 474.45312 315.99353Q474.625 315.80603 474.95312 315.80603Q475.29688 315.80603 475.46875 315.99353Q475.64062 316.18103 475.64062 316.46228Q475.64062 316.7279 475.46875 316.9154Q475.29688 317.08728 474.95312 317.08728Q474.625 317.08728 474.45312 316.9154Q474.29688 316.7279 474.29688 316.46228ZM481.78125 319.33728L482.96875 319.33728L482.96875 320.21228L481.78125 320.21228L481.78125 322.19666L480.70312 322.19666L480.70312 320.21228L476.8125 320.21228L476.8125 319.57166L480.625 313.6654L481.78125 313.6654L481.78125 319.33728ZM478.04688 319.33728L480.70312 319.33728L480.70312 315.14978L480.5625 315.38416L478.04688 319.33728ZM484.70312 317.9154L485.14062 313.6654L489.51562 313.6654L489.51562 314.6654L486.0625 314.6654L485.79688 316.99353Q486.4375 316.61853 487.23438 316.61853Q488.39062 316.61853 489.07812 317.39978Q489.76562 318.1654 489.76562 319.4779Q489.76562 320.7904 489.04688 321.55603Q488.34375 322.32166 487.0625 322.32166Q485.9375 322.32166 485.21875 321.69666Q484.5 321.05603 484.40625 319.94666L485.42188 319.94666Q485.53125 320.68103 485.95312 321.05603Q486.375 321.43103 487.0625 321.43103Q487.8125 321.43103 488.25 320.9154Q488.6875 320.39978 488.6875 319.49353Q488.6875 318.63416 488.21875 318.11853Q487.75 317.6029 486.96875 317.6029Q486.26562 317.6029 485.85938 317.89978L485.57812 318.13416L484.70312 317.9154Z" fill-rule="nonzero"/><path fill="#000000" d="M465.5625 318.55603Q465.5625 320.46228 464.90625 321.39978Q464.26562 322.32166 462.875 322.32166Q461.51562 322.32166 460.85938 321.4154Q460.20312 320.50916 460.17188 318.69666L460.17188 317.25916Q460.17188 315.36853 460.8125 314.46228Q461.46875 313.5404 462.85938 313.5404Q464.23438 313.5404 464.89062 314.43103Q465.54688 315.30603 465.5625 317.14978L465.5625 318.55603ZM464.46875 317.07166Q464.46875 315.69666 464.07812 315.07166Q463.70312 314.43103 462.85938 314.43103Q462.03125 314.43103 461.64062 315.07166Q461.26562 315.69666 461.26562 316.99353L461.26562 318.7279Q461.26562 320.1029 461.65625 320.77478Q462.0625 321.43103 462.875 321.43103Q463.67188 321.43103 464.0625 320.80603Q464.45312 320.18103 464.46875 318.8529L464.46875 317.07166ZM471.46875 313.6654L471.46875 314.57166L471.26562 314.57166Q470.0 314.6029 469.25 315.33728Q468.5 316.05603 468.375 317.36853Q469.0625 316.6029 470.21875 316.6029Q471.32812 316.6029 472.0 317.38416Q472.67188 318.1654 472.67188 319.4154Q472.67188 320.7279 471.95312 321.52478Q471.23438 322.32166 470.01562 322.32166Q468.79688 322.32166 468.03125 321.38416Q467.28125 320.43103 467.28125 318.94666L467.28125 318.5404Q467.28125 316.18103 468.28125 314.93103Q469.28125 313.68103 471.26562 313.6654L471.46875 313.6654ZM470.04688 317.50916Q469.48438 317.50916 469.01562 317.83728Q468.54688 318.1654 468.35938 318.68103L468.35938 319.07166Q468.35938 320.13416 468.82812 320.77478Q469.3125 321.4154 470.01562 321.4154Q470.75 321.4154 471.17188 320.88416Q471.59375 320.33728 471.59375 319.46228Q471.59375 318.58728 471.17188 318.05603Q470.75 317.50916 470.04688 317.50916ZM474.28125 321.63416Q474.28125 321.3529 474.4375 321.1654Q474.60938 320.9779 474.9375 320.9779Q475.28125 320.9779 475.45312 321.1654Q475.625 321.3529 475.625 321.63416Q475.625 321.89978 475.45312 322.08728Q475.28125 322.25916 474.9375 322.25916Q474.60938 322.25916 474.4375 322.08728Q474.28125 321.89978 474.28125 321.63416ZM474.29688 316.46228Q474.29688 316.18103 474.45312 315.99353Q474.625 315.80603 474.95312 315.80603Q475.29688 315.80603 475.46875 315.99353Q475.64062 316.18103 475.64062 316.46228Q475.64062 316.7279 475.46875 316.9154Q475.29688 317.08728 474.95312 317.08728Q474.625 317.08728 474.45312 316.9154Q474.29688 316.7279 474.29688 316.46228ZM481.78125 319.33728L482.96875 319.33728L482.96875 320.21228L481.78125 320.21228L481.78125 322.19666L480.70312 322.19666L480.70312 320.21228L476.8125 320.21228L476.8125 319.57166L480.625 313.6654L481.78125 313.6654L481.78125 319.33728ZM478.04688 319.33728L480.70312 319.33728L480.70312 315.14978L480.5625 315.38416L478.04688 319.33728ZM484.70312 317.9154L485.14062 313.6654L489.51562 313.6654L489.51562 314.6654L486.0625 314.6654L485.79688 316.99353Q486.4375 316.61853 487.23438 316.61853Q488.39062 316.61853 489.07812 317.39978Q489.76562 318.1654 489.76562 319.4779Q489.76562 320.7904 489.04688 321.55603Q488.34375 322.32166 487.0625 322.32166Q485.9375 322.32166 485.21875 321.69666Q484.5 321.05603 484.40625 319.94666L485.42188 319.94666Q485.53125 320.68103 485.95312 321.05603Q486.375 321.43103 487.0625 321.43103Q487.8125 321.43103 488.25 320.9154Q488.6875 320.39978 488.6875 319.49353Q488.6875 318.63416 488.21875 318.11853Q487.75 317.6029 486.96875 317.6029Q486.26562 317.6029 485.85938 317.89978L485.57812 318.13416L484.70312 317.9154Z" fill-rule="nonzero"/><path fill="#ffffff" d="M19.05 332.21564Q19.05 330.6844 19.3625 329.7625Q19.675 328.825 20.284374 328.325Q20.909374 327.825 21.846874 327.825Q22.534374 327.825 23.05 328.10626Q23.58125 328.3875 23.925 328.91876Q24.26875 329.4344 24.45625 330.1844Q24.64375 330.9344 24.64375 332.21564Q24.64375 333.73126 24.33125 334.65314Q24.034374 335.575 23.409374 336.09064Q22.8 336.59064 21.846874 336.59064Q20.6125 336.59064 19.89375 335.7Q19.05 334.6375 19.05 332.21564ZM20.128124 332.21564Q20.128124 334.325 20.628124 335.02814Q21.128124 335.73126 21.846874 335.73126Q22.58125 335.73126 23.065624 335.02814Q23.565624 334.325 23.565624 332.21564Q23.565624 330.09064 23.065624 329.40314Q22.58125 328.7 21.83125 328.7Q21.1125 328.7 20.675 329.3094Q20.128124 330.09064 20.128124 332.21564ZM31.51875 329.96564L30.471874 330.04376Q30.33125 329.41876 30.08125 329.1375Q29.64375 328.6844 29.01875 328.6844Q28.51875 328.6844 28.128124 328.96564Q27.64375 329.34064 27.346874 330.04376Q27.065624 330.73126 27.05 332.0125Q27.425 331.4344 27.971874 331.15314Q28.534374 330.8719 29.14375 330.8719Q30.190624 330.8719 30.925 331.65314Q31.675 332.4344 31.675 333.65314Q31.675 334.46564 31.315624 335.16876Q30.971874 335.85626 30.3625 336.23126Q29.753124 336.59064 28.9875 336.59064Q27.659374 336.59064 26.83125 335.6219Q26.003124 334.65314 26.003124 332.4344Q26.003124 329.9344 26.925 328.8094Q27.721874 327.825 29.08125 327.825Q30.096874 327.825 30.7375 328.40314Q31.39375 328.96564 31.51875 329.96564ZM27.221874 333.66876Q27.221874 334.21564 27.440624 334.71564Q27.675 335.2 28.08125 335.46564Q28.503124 335.73126 28.971874 335.73126Q29.628124 335.73126 30.1125 335.2Q30.596874 334.65314 30.596874 333.73126Q30.596874 332.84064 30.1125 332.325Q29.64375 331.8094 28.925 331.8094Q28.20625 331.8094 27.70625 332.325Q27.221874 332.84064 27.221874 333.66876ZM33.628124 331.4344L33.628124 330.23126L34.83125 330.23126L34.83125 331.4344L33.628124 331.4344ZM33.628124 336.45L33.628124 335.2469L34.83125 335.2469L34.83125 336.45L33.628124 336.45ZM36.05 334.1844L37.1125 334.04376Q37.284374 334.9344 37.721874 335.34064Q38.159374 335.73126 38.784374 335.73126Q39.534374 335.73126 40.05 335.21564Q40.565624 334.7 40.565624 333.9344Q40.565624 333.21564 40.08125 332.7469Q39.6125 332.2625 38.878124 332.2625Q38.58125 332.2625 38.128124 332.3875L38.253124 331.45Q38.3625 331.46564 38.425 331.46564Q39.096874 331.46564 39.628124 331.1219Q40.175 330.7625 40.175 330.02814Q40.175 329.45 39.784374 329.075Q39.39375 328.6844 38.76875 328.6844Q38.159374 328.6844 37.7375 329.075Q37.33125 329.46564 37.221874 330.23126L36.159374 330.04376Q36.346874 328.9969 37.034374 328.41876Q37.721874 327.825 38.7375 327.825Q39.440624 327.825 40.034374 328.1375Q40.628124 328.4344 40.940624 328.95Q41.253124 329.46564 41.253124 330.0594Q41.253124 330.60626 40.95625 331.075Q40.659374 331.52814 40.08125 331.79376Q40.83125 331.96564 41.253124 332.52814Q41.675 333.075 41.675 333.91876Q41.675 335.04376 40.846874 335.825Q40.034374 336.60626 38.784374 336.60626Q37.659374 336.60626 36.909374 335.9344Q36.159374 335.2469 36.05 334.1844ZM43.05 332.21564Q43.05 330.6844 43.3625 329.7625Q43.675 328.825 44.284374 328.325Q44.909374 327.825 45.846874 327.825Q46.534374 327.825 47.05 328.10626Q47.58125 328.3875 47.925 328.91876Q48.26875 329.4344 48.45625 330.1844Q48.64375 330.9344 48.64375 332.21564Q48.64375 333.73126 48.33125 334.65314Q48.034374 335.575 47.409374 336.09064Q46.8 336.59064 45.846874 336.59064Q44.6125 336.59064 43.89375 335.7Q43.05 334.6375 43.05 332.21564ZM44.128124 332.21564Q44.128124 334.325 44.628124 335.02814Q45.128124 335.73126 45.846874 335.73126Q46.58125 335.73126 47.065624 335.02814Q47.565624 334.325 47.565624 332.21564Q47.565624 330.09064 47.065624 329.40314Q46.58125 328.7 45.83125 328.7Q45.1125 328.7 44.675 329.3094Q44.128124 330.09064 44.128124 332.21564Z" fill-rule="nonzero"/><path fill="#ffffff" d="M19.05 278.10895Q19.05 276.5777 19.3625 275.65582Q19.675 274.71832 20.284374 274.21832Q20.909374 273.71832 21.846874 273.71832Q22.534374 273.71832 23.05 273.99957Q23.58125 274.28082 23.925 274.81207Q24.26875 275.3277 24.45625 276.0777Q24.64375 276.8277 24.64375 278.10895Q24.64375 279.62457 24.33125 280.54645Q24.034374 281.46832 23.409374 281.98395Q22.8 282.48395 21.846874 282.48395Q20.6125 282.48395 19.89375 281.59332Q19.05 280.53082 19.05 278.10895ZM20.128124 278.10895Q20.128124 280.21832 20.628124 280.92145Q21.128124 281.62457 21.846874 281.62457Q22.58125 281.62457 23.065624 280.92145Q23.565624 280.21832 23.565624 278.10895Q23.565624 275.98395 23.065624 275.29645Q22.58125 274.59332 21.83125 274.59332Q21.1125 274.59332 20.675 275.2027Q20.128124 275.98395 20.128124 278.10895ZM26.1125 274.87457L26.1125 273.85895L31.675 273.85895L31.675 274.68707Q30.8625 275.56207 30.05 277.0152Q29.253124 278.4527 28.815624 279.98395Q28.4875 281.06207 28.409374 282.34332L27.315624 282.34332Q27.33125 281.3277 27.70625 279.8902Q28.096874 278.4527 28.8 277.12457Q29.51875 275.79645 30.33125 274.87457L26.1125 274.87457ZM33.628124 277.3277L33.628124 276.12457L34.83125 276.12457L34.83125 277.3277L33.628124 277.3277ZM33.628124 282.34332L33.628124 281.1402L34.83125 281.1402L34.83125 282.34332L33.628124 282.34332ZM36.05 278.10895Q36.05 276.5777 36.3625 275.65582Q36.675 274.71832 37.284374 274.21832Q37.909374 273.71832 38.846874 273.71832Q39.534374 273.71832 40.05 273.99957Q40.58125 274.28082 40.925 274.81207Q41.26875 275.3277 41.45625 276.0777Q41.64375 276.8277 41.64375 278.10895Q41.64375 279.62457 41.33125 280.54645Q41.034374 281.46832 40.409374 281.98395Q39.8 282.48395 38.846874 282.48395Q37.6125 282.48395 36.89375 281.59332Q36.05 280.53082 36.05 278.10895ZM37.128124 278.10895Q37.128124 280.21832 37.628124 280.92145Q38.128124 281.62457 38.846874 281.62457Q39.58125 281.62457 40.065624 280.92145Q40.565624 280.21832 40.565624 278.10895Q40.565624 275.98395 40.065624 275.29645Q39.58125 274.59332 38.83125 274.59332Q38.1125 274.59332 37.675 275.2027Q37.128124 275.98395 37.128124 278.10895ZM43.05 278.10895Q43.05 276.5777 43.3625 275.65582Q43.675 274.71832 44.284374 274.21832Q44.909374 273.71832 45.846874 273.71832Q46.534374 273.71832 47.05 273.99957Q47.58125 274.28082 47.925 274.81207Q48.26875 275.3277 48.45625 276.0777Q48.64375 276.8277 48.64375 278.10895Q48.64375 279.62457 48.33125 280.54645Q48.034374 281.46832 47.409374 281.98395Q46.8 282.48395 45.846874 282.48395Q44.6125 282.48395 43.89375 281.59332Q43.05 280.53082 43.05 278.10895ZM44.128124 278.10895Q44.128124 280.21832 44.628124 280.92145Q45.128124 281.62457 45.846874 281.62457Q46.58125 281.62457 47.065624 280.92145Q47.565624 280.21832 47.565624 278.10895Q47.565624 275.98395 47.065624 275.29645Q46.58125 274.59332 45.83125 274.59332Q45.1125 274.59332 44.675 275.2027Q44.128124 275.98395 44.128124 278.10895Z" fill-rule="nonzero"/><path fill="#ffffff" d="M19.05 224.00229Q19.05 222.47104 19.3625 221.54916Q19.675 220.61166 20.284374 220.11166Q20.909374 219.61166 21.846874 219.61166Q22.534374 219.61166 23.05 219.89291Q23.58125 220.17416 23.925 220.70541Q24.26875 221.22104 24.45625 221.97104Q24.64375 222.72104 24.64375 224.00229Q24.64375 225.51791 24.33125 226.43979Q24.034374 227.36166 23.409374 227.87729Q22.8 228.37729 21.846874 228.37729Q20.6125 228.37729 19.89375 227.48666Q19.05 226.42416 19.05 224.00229ZM20.128124 224.00229Q20.128124 226.11166 20.628124 226.81479Q21.128124 227.51791 21.846874 227.51791Q22.58125 227.51791 23.065624 226.81479Q23.565624 226.11166 23.565624 224.00229Q23.565624 221.87729 23.065624 221.18979Q22.58125 220.48666 21.83125 220.48666Q21.1125 220.48666 20.675 221.09604Q20.128124 221.87729 20.128124 224.00229ZM26.1125 220.76791L26.1125 219.75229L31.675 219.75229L31.675 220.58041Q30.8625 221.45541 30.05 222.90854Q29.253124 224.34604 28.815624 225.87729Q28.4875 226.95541 28.409374 228.23666L27.315624 228.23666Q27.33125 227.22104 27.70625 225.78354Q28.096874 224.34604 28.8 223.01791Q29.51875 221.68979 30.33125 220.76791L26.1125 220.76791ZM33.628124 223.22104L33.628124 222.01791L34.83125 222.01791L34.83125 223.22104L33.628124 223.22104ZM33.628124 228.23666L33.628124 227.03354L34.83125 227.03354L34.83125 228.23666L33.628124 228.23666ZM36.05 225.97104L37.1125 225.83041Q37.284374 226.72104 37.721874 227.12729Q38.159374 227.51791 38.784374 227.51791Q39.534374 227.51791 40.05 227.00229Q40.565624 226.48666 40.565624 225.72104Q40.565624 225.00229 40.08125 224.53354Q39.6125 224.04916 38.878124 224.04916Q38.58125 224.04916 38.128124 224.17416L38.253124 223.23666Q38.3625 223.25229 38.425 223.25229Q39.096874 223.25229 39.628124 222.90854Q40.175 222.54916 40.175 221.81479Q40.175 221.23666 39.784374 220.86166Q39.39375 220.47104 38.76875 220.47104Q38.159374 220.47104 37.7375 220.86166Q37.33125 221.25229 37.221874 222.01791L36.159374 221.83041Q36.346874 220.78354 37.034374 220.20541Q37.721874 219.61166 38.7375 219.61166Q39.440624 219.61166 40.034374 219.92416Q40.628124 220.22104 40.940624 220.73666Q41.253124 221.25229 41.253124 221.84604Q41.253124 222.39291 40.95625 222.86166Q40.659374 223.31479 40.08125 223.58041Q40.83125 223.75229 41.253124 224.31479Q41.675 224.86166 41.675 225.70541Q41.675 226.83041 40.846874 227.61166Q40.034374 228.39291 38.784374 228.39291Q37.659374 228.39291 36.909374 227.72104Q36.159374 227.03354 36.05 225.97104ZM43.05 224.00229Q43.05 222.47104 43.3625 221.54916Q43.675 220.61166 44.284374 220.11166Q44.909374 219.61166 45.846874 219.61166Q46.534374 219.61166 47.05 219.89291Q47.58125 220.17416 47.925 220.70541Q48.26875 221.22104 48.45625 221.97104Q48.64375 222.72104 48.64375 224.00229Q48.64375 225.51791 48.33125 226.43979Q48.034374 227.36166 47.409374 227.87729Q46.8 228.37729 45.846874 228.37729Q44.6125 228.37729 43.89375 227.48666Q43.05 226.42416 43.05 224.00229ZM44.128124 224.00229Q44.128124 226.11166 44.628124 226.81479Q45.128124 227.51791 45.846874 227.51791Q46.58125 227.51791 47.065624 226.81479Q47.565624 226.11166 47.565624 224.00229Q47.565624 221.87729 47.065624 221.18979Q46.58125 220.48666 45.83125 220.48666Q45.1125 220.48666 44.675 221.09604Q44.128124 221.87729 44.128124 224.00229Z" fill-rule="nonzero"/><path fill="#ffffff" d="M19.05 169.89563Q19.05 168.36438 19.3625 167.4425Q19.675 166.505 20.284374 166.005Q20.909374 165.505 21.846874 165.505Q22.534374 165.505 23.05 165.78625Q23.58125 166.0675 23.925 166.59875Q24.26875 167.11438 24.45625 167.86438Q24.64375 168.61438 24.64375 169.89563Q24.64375 171.41125 24.33125 172.33313Q24.034374 173.255 23.409374 173.77063Q22.8 174.27063 21.846874 174.27063Q20.6125 174.27063 19.89375 173.38Q19.05 172.3175 19.05 169.89563ZM20.128124 169.89563Q20.128124 172.005 20.628124 172.70813Q21.128124 173.41125 21.846874 173.41125Q22.58125 173.41125 23.065624 172.70813Q23.565624 172.005 23.565624 169.89563Q23.565624 167.77063 23.065624 167.08313Q22.58125 166.38 21.83125 166.38Q21.1125 166.38 20.675 166.98938Q20.128124 167.77063 20.128124 169.89563ZM27.675 169.47375Q27.01875 169.22375 26.690624 168.78625Q26.378124 168.33313 26.378124 167.72375Q26.378124 166.78625 27.05 166.14563Q27.7375 165.505 28.846874 165.505Q29.971874 165.505 30.659374 166.16125Q31.346874 166.8175 31.346874 167.755Q31.346874 168.34875 31.034374 168.78625Q30.721874 169.22375 30.08125 169.47375Q30.878124 169.72375 31.284374 170.30188Q31.690624 170.88 31.690624 171.67688Q31.690624 172.77063 30.909374 173.52063Q30.14375 174.27063 28.8625 174.27063Q27.596874 174.27063 26.815624 173.52063Q26.034374 172.77063 26.034374 171.64563Q26.034374 170.80188 26.45625 170.23938Q26.89375 169.67688 27.675 169.47375ZM27.45625 167.67688Q27.45625 168.28625 27.846874 168.67688Q28.253124 169.0675 28.878124 169.0675Q29.4875 169.0675 29.878124 168.6925Q30.26875 168.30188 30.26875 167.73938Q30.26875 167.16125 29.8625 166.77063Q29.45625 166.36438 28.8625 166.36438Q28.253124 166.36438 27.846874 166.755Q27.45625 167.14563 27.45625 167.67688ZM27.128124 171.64563Q27.128124 172.09875 27.33125 172.52063Q27.55 172.9425 27.971874 173.17688Q28.39375 173.41125 28.878124 173.41125Q29.628124 173.41125 30.1125 172.92688Q30.6125 172.4425 30.6125 171.6925Q30.6125 170.92688 30.1125 170.42688Q29.6125 169.92688 28.846874 169.92688Q28.096874 169.92688 27.6125 170.42688Q27.128124 170.91125 27.128124 171.64563ZM33.628124 169.11438L33.628124 167.91125L34.83125 167.91125L34.83125 169.11438L33.628124 169.11438ZM33.628124 174.13L33.628124 172.92688L34.83125 172.92688L34.83125 174.13L33.628124 174.13ZM36.05 169.89563Q36.05 168.36438 36.3625 167.4425Q36.675 166.505 37.284374 166.005Q37.909374 165.505 38.846874 165.505Q39.534374 165.505 40.05 165.78625Q40.58125 166.0675 40.925 166.59875Q41.26875 167.11438 41.45625 167.86438Q41.64375 168.61438 41.64375 169.89563Q41.64375 171.41125 41.33125 172.33313Q41.034374 173.255 40.409374 173.77063Q39.8 174.27063 38.846874 174.27063Q37.6125 174.27063 36.89375 173.38Q36.05 172.3175 36.05 169.89563ZM37.128124 169.89563Q37.128124 172.005 37.628124 172.70813Q38.128124 173.41125 38.846874 173.41125Q39.58125 173.41125 40.065624 172.70813Q40.565624 172.005 40.565624 169.89563Q40.565624 167.77063 40.065624 167.08313Q39.58125 166.38 38.83125 166.38Q38.1125 166.38 37.675 166.98938Q37.128124 167.77063 37.128124 169.89563ZM43.05 169.89563Q43.05 168.36438 43.3625 167.4425Q43.675 166.505 44.284374 166.005Q44.909374 165.505 45.846874 165.505Q46.534374 165.505 47.05 165.78625Q47.58125 166.0675 47.925 166.59875Q48.26875 167.11438 48.45625 167.86438Q48.64375 168.61438 48.64375 169.89563Q48.64375 171.41125 48.33125 172.33313Q48.034374 173.255 47.409374 173.77063Q46.8 174.27063 45.846874 174.27063Q44.6125 174.27063 43.89375 173.38Q43.05 172.3175 43.05 169.89563ZM44.128124 169.89563Q44.128124 172.005 44.628124 172.70813Q45.128124 173.41125 45.846874 173.41125Q46.58125 173.41125 47.065624 172.70813Q47.565624 172.005 47.565624 169.89563Q47.565624 167.77063 47.065624 167.08313Q46.58125 166.38 45.83125 166.38Q45.1125 166.38 44.675 166.98938Q44.128124 167.77063 44.128124 169.89563Z" fill-rule="nonzero"/><path fill="#ffffff" d="M19.05 115.788956Q19.05 114.257706 19.3625 113.33583Q19.675 112.39833 20.284374 111.89833Q20.909374 111.39833 21.846874 111.39833Q22.534374 111.39833 23.05 111.67958Q23.58125 111.96083 23.925 112.49208Q24.26875 113.007706 24.45625 113.757706Q24.64375 114.507706 24.64375 115.788956Q24.64375 117.30458 24.33125 118.226456Q24.034374 119.14833 23.409374 119.663956Q22.8 120.163956 21.846874 120.163956Q20.6125 120.163956 19.89375 119.27333Q19.05 118.21083 19.05 115.788956ZM20.128124 115.788956Q20.128124 117.89833 20.628124 118.601456Q21.128124 119.30458 21.846874 119.30458Q22.58125 119.30458 23.065624 118.601456Q23.565624 117.89833 23.565624 115.788956Q23.565624 113.663956 23.065624 112.976456Q22.58125 112.27333 21.83125 112.27333Q21.1125 112.27333 20.675 112.882706Q20.128124 113.663956 20.128124 115.788956ZM27.675 115.36708Q27.01875 115.11708 26.690624 114.67958Q26.378124 114.226456 26.378124 113.61708Q26.378124 112.67958 27.05 112.038956Q27.7375 111.39833 28.846874 111.39833Q29.971874 111.39833 30.659374 112.05458Q31.346874 112.71083 31.346874 113.64833Q31.346874 114.24208 31.034374 114.67958Q30.721874 115.11708 30.08125 115.36708Q30.878124 115.61708 31.284374 116.195206Q31.690624 116.77333 31.690624 117.570206Q31.690624 118.663956 30.909374 119.413956Q30.14375 120.163956 28.8625 120.163956Q27.596874 120.163956 26.815624 119.413956Q26.034374 118.663956 26.034374 117.538956Q26.034374 116.695206 26.45625 116.132706Q26.89375 115.570206 27.675 115.36708ZM27.45625 113.570206Q27.45625 114.17958 27.846874 114.570206Q28.253124 114.96083 28.878124 114.96083Q29.4875 114.96083 29.878124 114.58583Q30.26875 114.195206 30.26875 113.632706Q30.26875 113.05458 29.8625 112.663956Q29.45625 112.257706 28.8625 112.257706Q28.253124 112.257706 27.846874 112.64833Q27.45625 113.038956 27.45625 113.570206ZM27.128124 117.538956Q27.128124 117.99208 27.33125 118.413956Q27.55 118.83583 27.971874 119.070206Q28.39375 119.30458 28.878124 119.30458Q29.628124 119.30458 30.1125 118.820206Q30.6125 118.33583 30.6125 117.58583Q30.6125 116.820206 30.1125 116.320206Q29.6125 115.820206 28.846874 115.820206Q28.096874 115.820206 27.6125 116.320206Q27.128124 116.80458 27.128124 117.538956ZM33.628124 115.007706L33.628124 113.80458L34.83125 113.80458L34.83125 115.007706L33.628124 115.007706ZM33.628124 120.02333L33.628124 118.820206L34.83125 118.820206L34.83125 120.02333L33.628124 120.02333ZM36.05 117.757706L37.1125 117.61708Q37.284374 118.507706 37.721874 118.913956Q38.159374 119.30458 38.784374 119.30458Q39.534374 119.30458 40.05 118.788956Q40.565624 118.27333 40.565624 117.507706Q40.565624 116.788956 40.08125 116.320206Q39.6125 115.83583 38.878124 115.83583Q38.58125 115.83583 38.128124 115.96083L38.253124 115.02333Q38.3625 115.038956 38.425 115.038956Q39.096874 115.038956 39.628124 114.695206Q40.175 114.33583 40.175 113.601456Q40.175 113.02333 39.784374 112.64833Q39.39375 112.257706 38.76875 112.257706Q38.159374 112.257706 37.7375 112.64833Q37.33125 113.038956 37.221874 113.80458L36.159374 113.61708Q36.346874 112.570206 37.034374 111.99208Q37.721874 111.39833 38.7375 111.39833Q39.440624 111.39833 40.034374 111.71083Q40.628124 112.007706 40.940624 112.52333Q41.253124 113.038956 41.253124 113.632706Q41.253124 114.17958 40.95625 114.64833Q40.659374 115.101456 40.08125 115.36708Q40.83125 115.538956 41.253124 116.101456Q41.675 116.64833 41.675 117.49208Q41.675 118.61708 40.846874 119.39833Q40.034374 120.17958 38.784374 120.17958Q37.659374 120.17958 36.909374 119.507706Q36.159374 118.820206 36.05 117.757706ZM43.05 115.788956Q43.05 114.257706 43.3625 113.33583Q43.675 112.39833 44.284374 111.89833Q44.909374 111.39833 45.846874 111.39833Q46.534374 111.39833 47.05 111.67958Q47.58125 111.96083 47.925 112.49208Q48.26875 113.007706 48.45625 113.757706Q48.64375 114.507706 48.64375 115.788956Q48.64375 117.30458 48.33125 118.226456Q48.034374 119.14833 47.409374 119.663956Q46.8 120.163956 45.846874 120.163956Q44.6125 120.163956 43.89375 119.27333Q43.05 118.21083 43.05 115.788956ZM44.128124 115.788956Q44.128124 117.89833 44.628124 118.601456Q45.128124 119.30458 45.846874 119.30458Q46.58125 119.30458 47.065624 118.601456Q47.565624 117.89833 47.565624 115.788956Q47.565624 113.663956 47.065624 112.976456Q46.58125 112.27333 45.83125 112.27333Q45.1125 112.27333 44.675 112.882706Q44.128124 113.663956 44.128124 115.788956Z" fill-rule="nonzero"/><path fill="#ffffff" d="M19.05 61.68229Q19.05 60.15104 19.3625 59.229164Q19.675 58.291664 20.284374 57.791664Q20.909374 57.291664 21.846874 57.291664Q22.534374 57.291664 23.05 57.572914Q23.58125 57.854164 23.925 58.385414Q24.26875 58.90104 24.45625 59.65104Q24.64375 60.40104 24.64375 61.68229Q24.64375 63.197914 24.33125 64.11979Q24.034374 65.041664 23.409374 65.55729Q22.8 66.05729 21.846874 66.05729Q20.6125 66.05729 19.89375 65.166664Q19.05 64.104164 19.05 61.68229ZM20.128124 61.68229Q20.128124 63.791664 20.628124 64.49479Q21.128124 65.197914 21.846874 65.197914Q22.58125 65.197914 23.065624 64.49479Q23.565624 63.791664 23.565624 61.68229Q23.565624 59.55729 23.065624 58.86979Q22.58125 58.166664 21.83125 58.166664Q21.1125 58.166664 20.675 58.77604Q20.128124 59.55729 20.128124 61.68229ZM26.20625 63.93229L27.221874 63.83854Q27.346874 64.55729 27.70625 64.885414Q28.08125 65.197914 28.64375 65.197914Q29.128124 65.197914 29.4875 64.979164Q29.8625 64.74479 30.096874 64.385414Q30.33125 64.010414 30.4875 63.385414Q30.64375 62.74479 30.64375 62.08854Q30.64375 62.010414 30.64375 61.86979Q30.33125 62.36979 29.784374 62.697914Q29.2375 63.010414 28.596874 63.010414Q27.51875 63.010414 26.784374 62.24479Q26.05 61.46354 26.05 60.197914Q26.05 58.885414 26.815624 58.08854Q27.596874 57.291664 28.753124 57.291664Q29.58125 57.291664 30.26875 57.74479Q30.971874 58.197914 31.33125 59.041664Q31.690624 59.86979 31.690624 61.447914Q31.690624 63.08854 31.33125 64.072914Q30.9875 65.041664 30.26875 65.55729Q29.565624 66.05729 28.628124 66.05729Q27.6125 66.05729 26.971874 65.510414Q26.33125 64.947914 26.20625 63.93229ZM30.51875 60.135414Q30.51875 59.229164 30.034374 58.697914Q29.565624 58.166664 28.878124 58.166664Q28.175 58.166664 27.64375 58.74479Q27.128124 59.30729 27.128124 60.229164Q27.128124 61.041664 27.628124 61.55729Q28.128124 62.072914 28.846874 62.072914Q29.58125 62.072914 30.05 61.55729Q30.51875 61.041664 30.51875 60.135414ZM33.628124 60.90104L33.628124 59.697914L34.83125 59.697914L34.83125 60.90104L33.628124 60.90104ZM33.628124 65.916664L33.628124 64.71354L34.83125 64.71354L34.83125 65.916664L33.628124 65.916664ZM36.05 61.68229Q36.05 60.15104 36.3625 59.229164Q36.675 58.291664 37.284374 57.791664Q37.909374 57.291664 38.846874 57.291664Q39.534374 57.291664 40.05 57.572914Q40.58125 57.854164 40.925 58.385414Q41.26875 58.90104 41.45625 59.65104Q41.64375 60.40104 41.64375 61.68229Q41.64375 63.197914 41.33125 64.11979Q41.034374 65.041664 40.409374 65.55729Q39.8 66.05729 38.846874 66.05729Q37.6125 66.05729 36.89375 65.166664Q36.05 64.104164 36.05 61.68229ZM37.128124 61.68229Q37.128124 63.791664 37.628124 64.49479Q38.128124 65.197914 38.846874 65.197914Q39.58125 65.197914 40.065624 64.49479Q40.565624 63.791664 40.565624 61.68229Q40.565624 59.55729 40.065624 58.86979Q39.58125 58.166664 38.83125 58.166664Q38.1125 58.166664 37.675 58.77604Q37.128124 59.55729 37.128124 61.68229ZM43.05 61.68229Q43.05 60.15104 43.3625 59.229164Q43.675 58.291664 44.284374 57.791664Q44.909374 57.291664 45.846874 57.291664Q46.534374 57.291664 47.05 57.572914Q47.58125 57.854164 47.925 58.385414Q48.26875 58.90104 48.45625 59.65104Q48.64375 60.40104 48.64375 61.68229Q48.64375 63.197914 48.33125 64.11979Q48.034374 65.041664 47.409374 65.55729Q46.8 66.05729 45.846874 66.05729Q44.6125 66.05729 43.89375 65.166664Q43.05 64.104164 43.05 61.68229ZM44.128124 61.68229Q44.128124 63.791664 44.628124 64.49479Q45.128124 65.197914 45.846874 65.197914Q46.58125 65.197914 47.065624 64.49479Q47.565624 63.791664 47.565624 61.68229Q47.565624 59.55729 47.065624 58.86979Q46.58125 58.166664 45.83125 58.166664Q45.1125 58.166664 44.675 58.77604Q44.128124 59.55729 44.128124 61.68229Z" fill-rule="nonzero"/><path fill="#ffffff" d="M131.0618 346.6844L132.1243 346.59064Q132.20242 347.2469 132.48367 347.65314Q132.76492 348.0594 133.34305 348.325Q133.9368 348.575 134.67117 348.575Q135.3118 348.575 135.8118 348.3875Q136.3118 348.1844 136.54617 347.85626Q136.79617 347.5125 136.79617 347.1219Q136.79617 346.71564 136.5618 346.41876Q136.32742 346.10626 135.79617 345.90314Q135.4368 345.7625 134.2493 345.48126Q133.07742 345.2 132.60867 344.95Q131.98367 344.6219 131.6868 344.15314Q131.38992 343.66876 131.38992 343.075Q131.38992 342.4344 131.7493 341.8719Q132.1243 341.29376 132.82742 341.0125Q133.54617 340.71564 134.40555 340.71564Q135.35867 340.71564 136.09305 341.02814Q136.82742 341.325 137.21805 341.9344Q137.60867 342.52814 137.63992 343.27814L136.54617 343.35626Q136.45242 342.54376 135.9368 342.1375Q135.4368 341.71564 134.45242 341.71564Q133.42117 341.71564 132.95242 342.09064Q132.48367 342.46564 132.48367 342.9969Q132.48367 343.46564 132.8118 343.7625Q133.13992 344.0594 134.51492 344.3719Q135.90555 344.6844 136.42117 344.91876Q137.17117 345.27814 137.53055 345.8094Q137.88992 346.325 137.88992 347.02814Q137.88992 347.71564 137.4993 348.325Q137.10867 348.91876 136.3743 349.2625Q135.63992 349.59064 134.71805 349.59064Q133.54617 349.59064 132.7493 349.2625Q131.96805 348.91876 131.51492 348.23126Q131.07742 347.54376 131.0618 346.6844ZM139.3118 351.84064L139.3118 343.23126L140.26492 343.23126L140.26492 344.02814Q140.60867 343.5594 141.03055 343.325Q141.46805 343.09064 142.07742 343.09064Q142.8743 343.09064 143.48367 343.4969Q144.09305 343.90314 144.38992 344.65314Q144.70242 345.40314 144.70242 346.29376Q144.70242 347.2469 144.35867 348.0125Q144.03055 348.77814 143.3743 349.1844Q142.71805 349.59064 141.9993 349.59064Q141.46805 349.59064 141.04617 349.3719Q140.6243 349.1375 140.35867 348.8094L140.35867 351.84064L139.3118 351.84064ZM140.26492 346.3719Q140.26492 347.575 140.7493 348.15314Q141.23367 348.71564 141.92117 348.71564Q142.6243 348.71564 143.1243 348.1219Q143.6243 347.52814 143.6243 346.27814Q143.6243 345.09064 143.13992 344.5125Q142.65555 343.91876 141.96805 343.91876Q141.29617 343.91876 140.78055 344.54376Q140.26492 345.16876 140.26492 346.3719ZM146.29617 349.45L146.29617 343.23126L147.2493 343.23126L147.2493 344.16876Q147.60867 343.5125 147.90555 343.3094Q148.21805 343.09064 148.59305 343.09064Q149.1243 343.09064 149.67117 343.41876L149.3118 344.40314Q148.92117 344.16876 148.54617 344.16876Q148.1868 344.16876 147.90555 344.3875Q147.63992 344.59064 147.53055 344.96564Q147.34305 345.52814 147.34305 346.1844L147.34305 349.45L146.29617 349.45ZM154.3743 348.6844Q153.78055 349.1844 153.23367 349.3875Q152.70242 349.59064 152.07742 349.59064Q151.04617 349.59064 150.4993 349.09064Q149.95242 348.59064 149.95242 347.8094Q149.95242 347.35626 150.15555 346.98126Q150.35867 346.59064 150.70242 346.3719Q151.04617 346.1375 151.46805 346.02814Q151.76492 345.9344 152.40555 345.85626Q153.67117 345.71564 154.28055 345.4969Q154.28055 345.27814 154.28055 345.23126Q154.28055 344.575 153.98367 344.3094Q153.57742 343.96564 152.78055 343.96564Q152.04617 343.96564 151.6868 344.23126Q151.32742 344.48126 151.15555 345.1375L150.1243 344.9969Q150.26492 344.34064 150.59305 343.9344Q150.92117 343.52814 151.53055 343.3094Q152.13992 343.09064 152.9368 343.09064Q153.73367 343.09064 154.23367 343.27814Q154.73367 343.46564 154.96805 343.7469Q155.20242 344.02814 155.29617 344.46564Q155.34305 344.73126 155.34305 345.4344L155.34305 346.84064Q155.34305 348.3094 155.40555 348.7Q155.48367 349.09064 155.6868 349.45L154.57742 349.45Q154.42117 349.1219 154.3743 348.6844ZM154.28055 346.325Q153.70242 346.5594 152.5618 346.73126Q151.90555 346.825 151.63992 346.95Q151.3743 347.0594 151.21805 347.27814Q151.07742 347.4969 151.07742 347.77814Q151.07742 348.2 151.38992 348.48126Q151.71805 348.7625 152.32742 348.7625Q152.9368 348.7625 153.40555 348.4969Q153.88992 348.23126 154.10867 347.7625Q154.28055 347.40314 154.28055 346.71564L154.28055 346.325ZM161.3743 347.16876L162.40555 347.3094Q162.23367 348.3719 161.53055 348.98126Q160.82742 349.59064 159.8118 349.59064Q158.53055 349.59064 157.7493 348.7625Q156.98367 347.91876 156.98367 346.35626Q156.98367 345.35626 157.3118 344.60626Q157.65555 343.84064 158.32742 343.46564Q159.01492 343.09064 159.82742 343.09064Q160.82742 343.09064 161.46805 343.60626Q162.1243 344.10626 162.3118 345.0594L161.28055 345.21564Q161.13992 344.59064 160.76492 344.27814Q160.38992 343.95 159.85867 343.95Q159.0618 343.95 158.5618 344.52814Q158.0618 345.09064 158.0618 346.325Q158.0618 347.59064 158.54617 348.15314Q159.03055 348.71564 159.79617 348.71564Q160.42117 348.71564 160.82742 348.34064Q161.2493 347.96564 161.3743 347.16876ZM163.3118 349.45L163.3118 340.85626L164.35867 340.85626L164.35867 343.9344Q165.09305 343.09064 166.21805 343.09064Q166.92117 343.09064 167.42117 343.3719Q167.9368 343.6375 168.15555 344.1219Q168.3743 344.59064 168.3743 345.5125L168.3743 349.45L167.32742 349.45L167.32742 345.5125Q167.32742 344.71564 166.98367 344.35626Q166.63992 343.9969 166.01492 343.9969Q165.54617 343.9969 165.1243 344.2469Q164.71805 344.48126 164.53055 344.90314Q164.35867 345.3094 164.35867 346.04376L164.35867 349.45L163.3118 349.45ZM174.3743 347.16876L175.40555 347.3094Q175.23367 348.3719 174.53055 348.98126Q173.82742 349.59064 172.8118 349.59064Q171.53055 349.59064 170.7493 348.7625Q169.98367 347.91876 169.98367 346.35626Q169.98367 345.35626 170.3118 344.60626Q170.65555 343.84064 171.32742 343.46564Q172.01492 343.09064 172.82742 343.09064Q173.82742 343.09064 174.46805 343.60626Q175.1243 344.10626 175.3118 345.0594L174.28055 345.21564Q174.13992 344.59064 173.76492 344.27814Q173.38992 343.95 172.85867 343.95Q172.0618 343.95 171.5618 344.52814Q171.0618 345.09064 171.0618 346.325Q171.0618 347.59064 171.54617 348.15314Q172.03055 348.71564 172.79617 348.71564Q173.42117 348.71564 173.82742 348.34064Q174.2493 347.96564 174.3743 347.16876ZM176.3118 349.45L176.3118 340.85626L177.35867 340.85626L177.35867 343.9344Q178.09305 343.09064 179.21805 343.09064Q179.92117 343.09064 180.42117 343.3719Q180.9368 343.6375 181.15555 344.1219Q181.3743 344.59064 181.3743 345.5125L181.3743 349.45L180.32742 349.45L180.32742 345.5125Q180.32742 344.71564 179.98367 344.35626Q179.63992 343.9969 179.01492 343.9969Q178.54617 343.9969 178.1243 344.2469Q177.71805 344.48126 177.53055 344.90314Q177.35867 345.3094 177.35867 346.04376L177.35867 349.45L176.3118 349.45ZM187.3743 348.6844Q186.78055 349.1844 186.23367 349.3875Q185.70242 349.59064 185.07742 349.59064Q184.04617 349.59064 183.4993 349.09064Q182.95242 348.59064 182.95242 347.8094Q182.95242 347.35626 183.15555 346.98126Q183.35867 346.59064 183.70242 346.3719Q184.04617 346.1375 184.46805 346.02814Q184.76492 345.9344 185.40555 345.85626Q186.67117 345.71564 187.28055 345.4969Q187.28055 345.27814 187.28055 345.23126Q187.28055 344.575 186.98367 344.3094Q186.57742 343.96564 185.78055 343.96564Q185.04617 343.96564 184.6868 344.23126Q184.32742 344.48126 184.15555 345.1375L183.1243 344.9969Q183.26492 344.34064 183.59305 343.9344Q183.92117 343.52814 184.53055 343.3094Q185.13992 343.09064 185.9368 343.09064Q186.73367 343.09064 187.23367 343.27814Q187.73367 343.46564 187.96805 343.7469Q188.20242 344.02814 188.29617 344.46564Q188.34305 344.73126 188.34305 345.4344L188.34305 346.84064Q188.34305 348.3094 188.40555 348.7Q188.48367 349.09064 188.6868 349.45L187.57742 349.45Q187.42117 349.1219 187.3743 348.6844ZM187.28055 346.325Q186.70242 346.5594 185.5618 346.73126Q184.90555 346.825 184.63992 346.95Q184.3743 347.0594 184.21805 347.27814Q184.07742 347.4969 184.07742 347.77814Q184.07742 348.2 184.38992 348.48126Q184.71805 348.7625 185.32742 348.7625Q185.9368 348.7625 186.40555 348.4969Q186.88992 348.23126 187.10867 347.7625Q187.28055 347.40314 187.28055 346.71564L187.28055 346.325ZM192.60867 348.5125L192.76492 349.4344Q192.3118 349.52814 191.96805 349.52814Q191.38992 349.52814 191.07742 349.35626Q190.76492 349.16876 190.6243 348.8719Q190.4993 348.575 190.4993 347.6219L190.4993 344.04376L189.73367 344.04376L189.73367 343.23126L190.4993 343.23126L190.4993 341.6844L191.54617 341.0594L191.54617 343.23126L192.60867 343.23126L192.60867 344.04376L191.54617 344.04376L191.54617 347.6844Q191.54617 348.1375 191.59305 348.2625Q191.65555 348.3875 191.78055 348.46564Q191.90555 348.54376 192.13992 348.54376Q192.32742 348.54376 192.60867 348.5125Z" fill-rule="nonzero"/><path fill="#ffffff" d="M299.10938 349.45L299.10938 341.8719L296.28125 341.8719L296.28125 340.85626L303.09375 340.85626L303.09375 341.8719L300.25 341.8719L300.25 349.45L299.10938 349.45ZM308.04688 347.45L309.14062 347.575Q308.89062 348.52814 308.1875 349.0594Q307.48438 349.59064 306.40625 349.59064Q305.04688 349.59064 304.23438 348.7469Q303.4375 347.90314 303.4375 346.3875Q303.4375 344.825 304.25 343.96564Q305.0625 343.09064 306.34375 343.09064Q307.59375 343.09064 308.375 343.9344Q309.17188 344.77814 309.17188 346.325Q309.17188 346.41876 309.17188 346.60626L304.53125 346.60626Q304.59375 347.6375 305.10938 348.1844Q305.625 348.71564 306.40625 348.71564Q306.98438 348.71564 307.39062 348.41876Q307.8125 348.10626 308.04688 347.45ZM304.59375 345.7469L308.0625 345.7469Q308.0 344.95 307.67188 344.5594Q307.15625 343.95 306.35938 343.95Q305.625 343.95 305.125 344.4344Q304.64062 344.91876 304.59375 345.7469ZM310.09375 349.45L312.35938 346.21564L310.26562 343.23126L311.57812 343.23126L312.53125 344.6844Q312.79688 345.10626 312.96875 345.3875Q313.21875 344.9969 313.4375 344.7L314.48438 343.23126L315.75 343.23126L313.59375 346.15314L315.90625 349.45L314.625 349.45L313.34375 347.5125L313.0 346.9969L311.35938 349.45L310.09375 349.45ZM318.09375 348.5125L318.25 349.4344Q317.79688 349.52814 317.45312 349.52814Q316.875 349.52814 316.5625 349.35626Q316.25 349.16876 316.10938 348.8719Q315.98438 348.575 315.98438 347.6219L315.98438 344.04376L315.21875 344.04376L315.21875 343.23126L315.98438 343.23126L315.98438 341.6844L317.03125 341.0594L317.03125 343.23126L318.09375 343.23126L318.09375 344.04376L317.03125 344.04376L317.03125 347.6844Q317.03125 348.1375 317.07812 348.2625Q317.14062 348.3875 317.26562 348.46564Q317.39062 348.54376 317.625 348.54376Q317.8125 348.54376 318.09375 348.5125ZM322.85938 347.16876L323.89062 347.3094Q323.71875 348.3719 323.01562 348.98126Q322.3125 349.59064 321.29688 349.59064Q320.01562 349.59064 319.23438 348.7625Q318.46875 347.91876 318.46875 346.35626Q318.46875 345.35626 318.79688 344.60626Q319.14062 343.84064 319.8125 343.46564Q320.5 343.09064 321.3125 343.09064Q322.3125 343.09064 322.95312 343.60626Q323.60938 344.10626 323.79688 345.0594L322.76562 345.21564Q322.625 344.59064 322.25 344.27814Q321.875 343.95 321.34375 343.95Q320.54688 343.95 320.04688 344.52814Q319.54688 345.09064 319.54688 346.325Q319.54688 347.59064 320.03125 348.15314Q320.51562 348.71564 321.28125 348.71564Q321.90625 348.71564 322.3125 348.34064Q322.73438 347.96564 322.85938 347.16876ZM324.79688 349.45L324.79688 340.85626L325.84375 340.85626L325.84375 343.9344Q326.57812 343.09064 327.70312 343.09064Q328.40625 343.09064 328.90625 343.3719Q329.42188 343.6375 329.64062 344.1219Q329.85938 344.59064 329.85938 345.5125L329.85938 349.45L328.8125 349.45L328.8125 345.5125Q328.8125 344.71564 328.46875 344.35626Q328.125 343.9969 327.5 343.9969Q327.03125 343.9969 326.60938 344.2469Q326.20312 344.48126 326.01562 344.90314Q325.84375 345.3094 325.84375 346.04376L325.84375 349.45L324.79688 349.45ZM335.85938 348.6844Q335.26562 349.1844 334.71875 349.3875Q334.1875 349.59064 333.5625 349.59064Q332.53125 349.59064 331.98438 349.09064Q331.4375 348.59064 331.4375 347.8094Q331.4375 347.35626 331.64062 346.98126Q331.84375 346.59064 332.1875 346.3719Q332.53125 346.1375 332.95312 346.02814Q333.25 345.9344 333.89062 345.85626Q335.15625 345.71564 335.76562 345.4969Q335.76562 345.27814 335.76562 345.23126Q335.76562 344.575 335.46875 344.3094Q335.0625 343.96564 334.26562 343.96564Q333.53125 343.96564 333.17188 344.23126Q332.8125 344.48126 332.64062 345.1375L331.60938 344.9969Q331.75 344.34064 332.07812 343.9344Q332.40625 343.52814 333.01562 343.3094Q333.625 343.09064 334.42188 343.09064Q335.21875 343.09064 335.71875 343.27814Q336.21875 343.46564 336.45312 343.7469Q336.6875 344.02814 336.78125 344.46564Q336.82812 344.73126 336.82812 345.4344L336.82812 346.84064Q336.82812 348.3094 336.89062 348.7Q336.96875 349.09064 337.17188 349.45L336.0625 349.45Q335.90625 349.1219 335.85938 348.6844ZM335.76562 346.325Q335.1875 346.5594 334.04688 346.73126Q333.39062 346.825 333.125 346.95Q332.85938 347.0594 332.70312 347.27814Q332.5625 347.4969 332.5625 347.77814Q332.5625 348.2 332.875 348.48126Q333.20312 348.7625 333.8125 348.7625Q334.42188 348.7625 334.89062 348.4969Q335.375 348.23126 335.59375 347.7625Q335.76562 347.40314 335.76562 346.71564L335.76562 346.325ZM341.09375 348.5125L341.25 349.4344Q340.79688 349.52814 340.45312 349.52814Q339.875 349.52814 339.5625 349.35626Q339.25 349.16876 339.10938 348.8719Q338.98438 348.575 338.98438 347.6219L338.98438 344.04376L338.21875 344.04376L338.21875 343.23126L338.98438 343.23126L338.98438 341.6844L340.03125 341.0594L340.03125 343.23126L341.09375 343.23126L341.09375 344.04376L340.03125 344.04376L340.03125 347.6844Q340.03125 348.1375 340.07812 348.2625Q340.14062 348.3875 340.26562 348.46564Q340.39062 348.54376 340.625 348.54376Q340.8125 348.54376 341.09375 348.5125Z" fill-rule="nonzero"/><path fill="#ffffff" d="M455.92258 348.52814Q456.71945 349.075 457.3757 349.325L457.04758 350.1219Q456.1257 349.77814 455.20383 349.0594Q454.2507 349.59064 453.09445 349.59064Q451.92258 349.59064 450.96945 349.02814Q450.03195 348.46564 449.51633 347.45Q449.0007 346.4344 449.0007 345.15314Q449.0007 343.8875 449.51633 342.84064Q450.03195 341.79376 450.98508 341.2469Q451.9382 340.7 453.11008 340.7Q454.29758 340.7 455.2507 341.27814Q456.21945 341.84064 456.71945 342.85626Q457.21945 343.8719 457.21945 345.15314Q457.21945 346.21564 456.89133 347.0594Q456.57883 347.90314 455.92258 348.52814ZM453.42258 347.075Q454.40695 347.35626 455.04758 347.90314Q456.04758 346.98126 456.04758 345.15314Q456.04758 344.10626 455.6882 343.325Q455.32883 342.54376 454.64133 342.1219Q453.96945 341.6844 453.1257 341.6844Q451.84445 341.6844 451.0007 342.5594Q450.17258 343.41876 450.17258 345.15314Q450.17258 346.825 451.0007 347.73126Q451.82883 348.6219 453.1257 348.6219Q453.73508 348.6219 454.26633 348.3875Q453.73508 348.04376 453.14133 347.90314L453.42258 347.075ZM462.36008 349.45L462.36008 348.52814Q461.6257 349.59064 460.3757 349.59064Q459.82883 349.59064 459.34445 349.3875Q458.8757 349.16876 458.64133 348.85626Q458.40695 348.52814 458.3132 348.0594Q458.2507 347.7625 458.2507 347.075L458.2507 343.23126L459.3132 343.23126L459.3132 346.6844Q459.3132 347.4969 459.3757 347.79376Q459.46945 348.2 459.78195 348.45Q460.11008 348.6844 460.59445 348.6844Q461.0632 348.6844 461.46945 348.45Q461.89133 348.2 462.0632 347.77814Q462.2507 347.35626 462.2507 346.5594L462.2507 343.23126L463.29758 343.23126L463.29758 349.45L462.36008 349.45ZM465.28195 342.075L465.28195 340.85626L466.34445 340.85626L466.34445 342.075L465.28195 342.075ZM465.28195 349.45L465.28195 343.23126L466.34445 343.23126L466.34445 349.45L465.28195 349.45ZM472.34445 347.16876L473.3757 347.3094Q473.20383 348.3719 472.5007 348.98126Q471.79758 349.59064 470.78195 349.59064Q469.5007 349.59064 468.71945 348.7625Q467.95383 347.91876 467.95383 346.35626Q467.95383 345.35626 468.28195 344.60626Q468.6257 343.84064 469.29758 343.46564Q469.98508 343.09064 470.79758 343.09064Q471.79758 343.09064 472.4382 343.60626Q473.09445 344.10626 473.28195 345.0594L472.2507 345.21564Q472.11008 344.59064 471.73508 344.27814Q471.36008 343.95 470.82883 343.95Q470.03195 343.95 469.53195 344.52814Q469.03195 345.09064 469.03195 346.325Q469.03195 347.59064 469.51633 348.15314Q470.0007 348.71564 470.76633 348.71564Q471.39133 348.71564 471.79758 348.34064Q472.21945 347.96564 472.34445 347.16876ZM474.28195 349.45L474.28195 340.85626L475.34445 340.85626L475.34445 345.7625L477.82883 343.23126L479.20383 343.23126L476.8132 345.52814L479.4382 349.45L478.14133 349.45L476.07883 346.2625L475.34445 346.98126L475.34445 349.45L474.28195 349.45ZM484.34445 347.16876L485.3757 347.3094Q485.20383 348.3719 484.5007 348.98126Q483.79758 349.59064 482.78195 349.59064Q481.5007 349.59064 480.71945 348.7625Q479.95383 347.91876 479.95383 346.35626Q479.95383 345.35626 480.28195 344.60626Q480.6257 343.84064 481.29758 343.46564Q481.98508 343.09064 482.79758 343.09064Q483.79758 343.09064 484.4382 343.60626Q485.09445 344.10626 485.28195 345.0594L484.2507 345.21564Q484.11008 344.59064 483.73508 344.27814Q483.36008 343.95 482.82883 343.95Q482.03195 343.95 481.53195 344.52814Q481.03195 345.09064 481.03195 346.325Q481.03195 347.59064 481.51633 348.15314Q482.0007 348.71564 482.76633 348.71564Q483.39133 348.71564 483.79758 348.34064Q484.21945 347.96564 484.34445 347.16876ZM486.28195 349.45L486.28195 340.85626L487.32883 340.85626L487.32883 343.9344Q488.0632 343.09064 489.1882 343.09064Q489.89133 343.09064 490.39133 343.3719Q490.90695 343.6375 491.1257 344.1219Q491.34445 344.59064 491.34445 345.5125L491.34445 349.45L490.29758 349.45L490.29758 345.5125Q490.29758 344.71564 489.95383 344.35626Q489.61008 343.9969 488.98508 343.9969Q488.51633 343.9969 488.09445 344.2469Q487.6882 344.48126 487.5007 344.90314Q487.32883 345.3094 487.32883 346.04376L487.32883 349.45L486.28195 349.45ZM497.34445 348.6844Q496.7507 349.1844 496.20383 349.3875Q495.67258 349.59064 495.04758 349.59064Q494.01633 349.59064 493.46945 349.09064Q492.92258 348.59064 492.92258 347.8094Q492.92258 347.35626 493.1257 346.98126Q493.32883 346.59064 493.67258 346.3719Q494.01633 346.1375 494.4382 346.02814Q494.73508 345.9344 495.3757 345.85626Q496.64133 345.71564 497.2507 345.4969Q497.2507 345.27814 497.2507 345.23126Q497.2507 344.575 496.95383 344.3094Q496.54758 343.96564 495.7507 343.96564Q495.01633 343.96564 494.65695 344.23126Q494.29758 344.48126 494.1257 345.1375L493.09445 344.9969Q493.23508 344.34064 493.5632 343.9344Q493.89133 343.52814 494.5007 343.3094Q495.11008 343.09064 495.90695 343.09064Q496.70383 343.09064 497.20383 343.27814Q497.70383 343.46564 497.9382 343.7469Q498.17258 344.02814 498.26633 344.46564Q498.3132 344.73126 498.3132 345.4344L498.3132 346.84064Q498.3132 348.3094 498.3757 348.7Q498.45383 349.09064 498.65695 349.45L497.54758 349.45Q497.39133 349.1219 497.34445 348.6844ZM497.2507 346.325Q496.67258 346.5594 495.53195 346.73126Q494.8757 346.825 494.61008 346.95Q494.34445 347.0594 494.1882 347.27814Q494.04758 347.4969 494.04758 347.77814Q494.04758 348.2 494.36008 348.48126Q494.6882 348.7625 495.29758 348.7625Q495.90695 348.7625 496.3757 348.4969Q496.86008 348.23126 497.07883 347.7625Q497.2507 347.40314 497.2507 346.71564L497.2507 346.325ZM502.57883 348.5125L502.73508 349.4344Q502.28195 349.52814 501.9382 349.52814Q501.36008 349.52814 501.04758 349.35626Q500.73508 349.16876 500.59445 348.8719Q500.46945 348.575 500.46945 347.6219L500.46945 344.04376L499.70383 344.04376L499.70383 343.23126L500.46945 343.23126L500.46945 341.6844L501.51633 341.0594L501.51633 343.23126L502.57883 343.23126L502.57883 344.04376L501.51633 344.04376L501.51633 347.6844Q501.51633 348.1375 501.5632 348.2625Q501.6257 348.3875 501.7507 348.46564Q501.8757 348.54376 502.11008 348.54376Q502.29758 348.54376 502.57883 348.5125Z" fill-rule="nonzero"/><path fill="#ffffff" d="M20.01875 37.55L20.01875 23.2375L21.909374 23.2375L21.909374 35.8625L28.95625 35.8625L28.95625 37.55L20.01875 37.55ZM30.221874 32.3625Q30.221874 29.4875 31.815624 28.096874Q33.159374 26.940624 35.08125 26.940624Q37.221874 26.940624 38.565624 28.346874Q39.925 29.753124 39.925 32.221874Q39.925 34.221874 39.33125 35.378124Q38.7375 36.51875 37.58125 37.159374Q36.440624 37.784374 35.08125 37.784374Q32.89375 37.784374 31.55 36.39375Q30.221874 34.9875 30.221874 32.3625ZM32.01875 32.3625Q32.01875 34.3625 32.878124 35.346874Q33.753124 36.33125 35.08125 36.33125Q36.39375 36.33125 37.253124 35.346874Q38.128124 34.346874 38.128124 32.3Q38.128124 30.378124 37.253124 29.39375Q36.378124 28.39375 35.08125 28.39375Q33.753124 28.39375 32.878124 29.39375Q32.01875 30.378124 32.01875 32.3625ZM32.33125 25.14375L32.33125 23.14375L34.175 23.14375L34.175 25.14375L32.33125 25.14375ZM35.971874 25.14375L35.971874 23.14375L37.815624 23.14375L37.815624 25.14375L35.971874 25.14375ZM41.159374 34.45625L42.909374 34.175Q43.05 35.221874 43.721874 35.784374Q44.39375 36.33125 45.596874 36.33125Q46.8 36.33125 47.378124 35.846874Q47.971874 35.346874 47.971874 34.690624Q47.971874 34.096874 47.45625 33.753124Q47.096874 33.51875 45.659374 33.159374Q43.721874 32.659374 42.971874 32.315624Q42.2375 31.95625 41.846874 31.33125Q41.45625 30.690624 41.45625 29.925Q41.45625 29.2375 41.76875 28.64375Q42.096874 28.05 42.64375 27.659374Q43.05 27.3625 43.753124 27.159374Q44.471874 26.940624 45.284374 26.940624Q46.503124 26.940624 47.425 27.3Q48.346874 27.64375 48.784374 28.253124Q49.221874 28.846874 49.39375 29.846874L47.675 30.08125Q47.55 29.284374 46.9875 28.846874Q46.425 28.39375 45.409374 28.39375Q44.190624 28.39375 43.675 28.8Q43.159374 29.190624 43.159374 29.721874Q43.159374 30.065624 43.378124 30.346874Q43.58125 30.628124 44.05 30.815624Q44.315624 30.909374 45.596874 31.253124Q47.471874 31.753124 48.20625 32.08125Q48.940624 32.39375 49.3625 33.003124Q49.784374 33.596874 49.784374 34.503124Q49.784374 35.378124 49.26875 36.159374Q48.753124 36.940624 47.784374 37.3625Q46.815624 37.784374 45.596874 37.784374Q43.58125 37.784374 42.51875 36.940624Q41.45625 36.096874 41.159374 34.45625ZM58.659374 37.55L58.659374 36.01875Q57.45625 37.784374 55.378124 37.784374Q54.45625 37.784374 53.659374 37.440624Q52.8625 37.08125 52.471874 36.55Q52.096874 36.01875 51.940624 35.2375Q51.83125 34.721874 51.83125 33.596874L51.83125 27.175L53.58125 27.175L53.58125 32.925Q53.58125 34.3 53.690624 34.784374Q53.8625 35.471874 54.39375 35.878124Q54.940624 36.26875 55.721874 36.26875Q56.51875 36.26875 57.20625 35.8625Q57.909374 35.45625 58.190624 34.76875Q58.4875 34.065624 58.4875 32.7375L58.4875 27.175L60.2375 27.175L60.2375 37.55L58.659374 37.55ZM61.8625 37.55L61.8625 27.175L63.45625 27.175L63.45625 28.659374Q64.59688 26.940624 66.75313 26.940624Q67.69063 26.940624 68.47188 27.284374Q69.26875 27.6125 69.65938 28.159374Q70.05 28.70625 70.20625 29.45625Q70.3 29.95625 70.3 31.175L70.3 37.55L68.53438 37.55L68.53438 31.2375Q68.53438 30.159374 68.33125 29.628124Q68.12813 29.096874 67.59688 28.784374Q67.08125 28.471874 66.37813 28.471874Q65.25313 28.471874 64.44063 29.190624Q63.628124 29.89375 63.628124 31.878124L63.628124 37.55L61.8625 37.55ZM71.55 38.409374L73.25313 38.659374Q73.3625 39.45625 73.84688 39.815624Q74.50313 40.3 75.64375 40.3Q76.8625 40.3 77.51875 39.815624Q78.19063 39.33125 78.425 38.45625Q78.56563 37.909374 78.55 36.190624Q77.39375 37.55 75.675 37.55Q73.53438 37.55 72.3625 36.003124Q71.19063 34.45625 71.19063 32.3Q71.19063 30.815624 71.72188 29.565624Q72.26875 28.315624 73.28438 27.628124Q74.31563 26.940624 75.69063 26.940624Q77.51875 26.940624 78.72188 28.425L78.72188 27.175L80.33125 27.175L80.33125 36.14375Q80.33125 38.565624 79.83125 39.565624Q79.34688 40.58125 78.26875 41.159374Q77.20625 41.753124 75.64375 41.753124Q73.8 41.753124 72.64375 40.925Q71.50313 40.096874 71.55 38.409374ZM73.00313 32.175Q73.00313 34.221874 73.81563 35.159374Q74.62813 36.096874 75.84688 36.096874Q77.05 36.096874 77.8625 35.159374Q78.69063 34.221874 78.69063 32.2375Q78.69063 30.33125 77.84688 29.3625Q77.00313 28.39375 75.81563 28.39375Q74.64375 28.39375 73.81563 29.346874Q73.00313 30.3 73.00313 32.175ZM82.15938 34.45625L83.90938 34.175Q84.05 35.221874 84.72188 35.784374Q85.39375 36.33125 86.59688 36.33125Q87.8 36.33125 88.37813 35.846874Q88.97188 35.346874 88.97188 34.690624Q88.97188 34.096874 88.45625 33.753124Q88.09688 33.51875 86.65938 33.159374Q84.72188 32.659374 83.97188 32.315624Q83.2375 31.95625 82.84688 31.33125Q82.45625 30.690624 82.45625 29.925Q82.45625 29.2375 82.76875 28.64375Q83.09688 28.05 83.64375 27.659374Q84.05 27.3625 84.75313 27.159374Q85.47188 26.940624 86.28438 26.940624Q87.50313 26.940624 88.425 27.3Q89.34688 27.64375 89.78438 28.253124Q90.22188 28.846874 90.39375 29.846874L88.675 30.08125Q88.55 29.284374 87.9875 28.846874Q87.425 28.39375 86.40938 28.39375Q85.19063 28.39375 84.675 28.8Q84.15938 29.190624 84.15938 29.721874Q84.15938 30.065624 84.37813 30.346874Q84.58125 30.628124 85.05 30.815624Q85.31563 30.909374 86.59688 31.253124Q88.47188 31.753124 89.20625 32.08125Q89.94063 32.39375 90.3625 33.003124Q90.78438 33.596874 90.78438 34.503124Q90.78438 35.378124 90.26875 36.159374Q89.75313 36.940624 88.78438 37.3625Q87.81563 37.784374 86.59688 37.784374Q84.58125 37.784374 83.51875 36.940624Q82.45625 36.096874 82.15938 34.45625ZM91.94063 37.55L91.94063 36.128124L98.55 28.55Q97.425 28.596874 96.56563 28.596874L92.33125 28.596874L92.33125 27.175L100.81563 27.175L100.81563 28.346874L95.19063 34.925L94.1125 36.128124Q95.28438 36.034374 96.33125 36.034374L101.12813 36.034374L101.12813 37.55L91.94063 37.55ZM108.97188 34.20625L110.78438 34.440624Q110.3625 36.01875 109.19063 36.909374Q108.03438 37.784374 106.22188 37.784374Q103.95625 37.784374 102.6125 36.39375Q101.28438 34.9875 101.28438 32.45625Q101.28438 29.83125 102.62813 28.39375Q103.97188 26.940624 106.12813 26.940624Q108.20625 26.940624 109.51875 28.3625Q110.84688 29.76875 110.84688 32.346874Q110.84688 32.503124 110.83125 32.815624L103.09688 32.815624Q103.19063 34.51875 104.06563 35.425Q104.94063 36.33125 106.2375 36.33125Q107.20625 36.33125 107.87813 35.83125Q108.56563 35.315624 108.97188 34.20625ZM103.19063 31.3625L108.9875 31.3625Q108.87813 30.065624 108.33125 29.409374Q107.4875 28.39375 106.14375 28.39375Q104.94063 28.39375 104.1125 29.20625Q103.28438 30.003124 103.19063 31.3625ZM112.87813 25.253124L112.87813 23.2375L114.64375 23.2375L114.64375 25.253124L112.87813 25.253124ZM112.87813 37.55L112.87813 27.175L114.64375 27.175L114.64375 37.55L112.87813 37.55ZM120.70625 35.971874L120.95625 37.534374Q120.22188 37.690624 119.62813 37.690624Q118.675 37.690624 118.14375 37.39375Q117.62813 37.08125 117.40938 36.596874Q117.19063 36.096874 117.19063 34.51875L117.19063 28.55L115.90938 28.55L115.90938 27.175L117.19063 27.175L117.19063 24.6125L118.94063 23.55L118.94063 27.175L120.70625 27.175L120.70625 28.55L118.94063 28.55L118.94063 34.6125Q118.94063 35.3625 119.03438 35.58125Q119.12813 35.784374 119.33125 35.925Q119.55 36.05 119.94063 36.05Q120.22188 36.05 120.70625 35.971874ZM132.22188 41.753124Q130.76875 39.925 129.76875 37.471874Q128.76875 35.003124 128.76875 32.3625Q128.76875 30.034374 129.51875 27.909374Q130.39375 25.440624 132.22188 22.9875L133.4875 22.9875Q132.3 25.01875 131.925 25.89375Q131.33125 27.2375 130.9875 28.70625Q130.56563 30.534374 130.56563 32.378124Q130.56563 37.065624 133.4875 41.753124L132.22188 41.753124ZM136.03438 37.55L136.03438 23.2375L138.89375 23.2375L142.26875 33.3625Q142.7375 34.784374 142.95625 35.4875Q143.20625 34.70625 143.72188 33.190624L147.14375 23.2375L149.69063 23.2375L149.69063 37.55L147.87813 37.55L147.87813 25.565624L143.70625 37.55L142.00313 37.55L137.8625 25.3625L137.8625 37.55L136.03438 37.55ZM152.87813 25.253124L152.87813 23.2375L154.64375 23.2375L154.64375 25.253124L152.87813 25.253124ZM152.87813 37.55L152.87813 27.175L154.64375 27.175L154.64375 37.55L152.87813 37.55ZM160.70625 35.971874L160.95625 37.534374Q160.22188 37.690624 159.62813 37.690624Q158.675 37.690624 158.14375 37.39375Q157.62813 37.08125 157.40938 36.596874Q157.19063 36.096874 157.19063 34.51875L157.19063 28.55L155.90938 28.55L155.90938 27.175L157.19063 27.175L157.19063 24.6125L158.94063 23.55L158.94063 27.175L160.70625 27.175L160.70625 28.55L158.94063 28.55L158.94063 34.6125Q158.94063 35.3625 159.03438 35.58125Q159.12813 35.784374 159.33125 35.925Q159.55 36.05 159.94063 36.05Q160.22188 36.05 160.70625 35.971874ZM166.70625 35.971874L166.95625 37.534374Q166.22188 37.690624 165.62813 37.690624Q164.675 37.690624 164.14375 37.39375Q163.62813 37.08125 163.40938 36.596874Q163.19063 36.096874 163.19063 34.51875L163.19063 28.55L161.90938 28.55L161.90938 27.175L163.19063 27.175L163.19063 24.6125L164.94063 23.55L164.94063 27.175L166.70625 27.175L166.70625 28.55L164.94063 28.55L164.94063 34.6125Q164.94063 35.3625 165.03438 35.58125Q165.12813 35.784374 165.33125 35.925Q165.55 36.05 165.94063 36.05Q166.22188 36.05 166.70625 35.971874ZM175.97188 34.20625L177.78438 34.440624Q177.3625 36.01875 176.19063 36.909374Q175.03438 37.784374 173.22188 37.784374Q170.95625 37.784374 169.6125 36.39375Q168.28438 34.9875 168.28438 32.45625Q168.28438 29.83125 169.62813 28.39375Q170.97188 26.940624 173.12813 26.940624Q175.20625 26.940624 176.51875 28.3625Q177.84688 29.76875 177.84688 32.346874Q177.84688 32.503124 177.83125 32.815624L170.09688 32.815624Q170.19063 34.51875 171.06563 35.425Q171.94063 36.33125 173.2375 36.33125Q174.20625 36.33125 174.87813 35.83125Q175.56563 35.315624 175.97188 34.20625ZM170.19063 31.3625L175.9875 31.3625Q175.87813 30.065624 175.33125 29.409374Q174.4875 28.39375 173.14375 28.39375Q171.94063 28.39375 171.1125 29.20625Q170.28438 30.003124 170.19063 31.3625ZM179.83125 37.55L179.83125 23.2375L181.58125 23.2375L181.58125 37.55L179.83125 37.55ZM185.01875 41.753124L183.76875 41.753124Q186.675 37.065624 186.675 32.378124Q186.675 30.534374 186.26875 28.7375Q185.925 27.26875 185.33125 25.925Q184.95625 25.034374 183.76875 22.9875L185.01875 22.9875Q186.8625 25.440624 187.7375 27.909374Q188.4875 30.034374 188.4875 32.3625Q188.4875 35.003124 187.47188 37.471874Q186.47188 39.925 185.01875 41.753124Z" fill-rule="nonzero"/></svg>